<svg width="40" height="40" viewBox="0 0 40 40" fill="none" xmlns="http://www.w3.org/2000/svg">
<path d="M21.7593 37.9692C21.9611 38.1539 22.1667 38.3272 22.3741 38.4965C20.8452 38.7127 19.0923 38.8571 17.1236 38.8571C13.1845 38.8571 8.3991 38.283 2.89213 36.562L2.30665 36.3791L2.28564 36.2465V27.7613C2.28564 22.3069 6.4803 17.8155 11.8118 17.3386C9.54862 15.8845 8.04641 13.3509 8.04641 10.4615C8.04641 5.94657 11.7063 2.28577 16.2222 2.28577C20.7363 2.28577 24.3975 5.94614 24.3975 10.4615C24.3975 13.3509 22.894 15.8845 20.6321 17.3386C21.7493 17.4388 22.8108 17.7236 23.7989 18.1477C19.7626 20.5741 17.2531 25.2435 17.8093 30.1444C18.1629 33.2626 19.4922 35.8955 21.7593 37.9692Z" fill="#464E6A"/>
<circle cx="29.5" cy="28.5" r="9.5" fill="#464E6A" stroke="#464E6A" stroke-width="2"/>
<path d="M29 22V29.5H33.5" stroke="#F9FCFF" stroke-width="1.5" stroke-linecap="round" stroke-linejoin="round"/>
</svg>
