<svg width="40" height="40" viewBox="0 0 40 40" fill="none" xmlns="http://www.w3.org/2000/svg">
<path fill-rule="evenodd" clip-rule="evenodd" d="M3.45094 21.0197C2.93115 21.0197 2.50977 21.441 2.50977 21.9608V36.5491C2.50977 37.0689 2.93115 37.4902 3.45094 37.4902H36.549C37.0688 37.4902 37.4902 37.0689 37.4902 36.5491V21.9608C37.4902 21.441 37.0688 21.0197 36.549 21.0197H3.45094ZM7.52937 24.3138C7.00958 24.3138 6.5882 24.7351 6.5882 25.2549C6.5882 25.7748 7.00958 26.1961 7.52937 26.1961H9.72545C10.2452 26.1961 10.6666 25.7748 10.6666 25.2549C10.6666 24.7351 10.2452 24.3138 9.72545 24.3138H7.52937ZM12.7058 25.2549C12.7058 24.7351 13.1272 24.3138 13.647 24.3138H15.8431C16.3629 24.3138 16.7843 24.7351 16.7843 25.2549C16.7843 25.7748 16.3629 26.1961 15.8431 26.1961H13.647C13.1272 26.1961 12.7058 25.7748 12.7058 25.2549ZM19.7647 24.3138C19.2448 24.3138 18.8235 24.7351 18.8235 25.2549C18.8235 25.7748 19.2448 26.1961 19.7647 26.1961H21.9607C22.4806 26.1961 22.9019 25.7748 22.9019 25.2549C22.9019 24.7351 22.4806 24.3138 21.9607 24.3138H19.7647ZM14.7451 29.3334C14.7451 28.8135 15.1664 28.3922 15.6862 28.3922H17.8823C18.4022 28.3922 18.8235 28.8135 18.8235 29.3334C18.8235 29.8532 18.4022 30.2746 17.8823 30.2746H15.6862C15.1664 30.2746 14.7451 29.8532 14.7451 29.3334ZM7.52937 32.4706C7.00958 32.4706 6.5882 32.892 6.5882 33.4118C6.5882 33.9317 7.00958 34.353 7.52937 34.353H9.72545C10.2452 34.353 10.6666 33.9317 10.6666 33.4118C10.6666 32.892 10.2452 32.4706 9.72545 32.4706H7.52937ZM6.5882 29.3334C6.5882 28.8135 7.00958 28.3922 7.52937 28.3922H11.7647C12.2845 28.3922 12.7058 28.8135 12.7058 29.3334C12.7058 29.8532 12.2845 30.2746 11.7647 30.2746H7.52937C7.00958 30.2746 6.5882 29.8532 6.5882 29.3334ZM27.9215 32.4706C27.4017 32.4706 26.9804 32.892 26.9804 33.4118C26.9804 33.9317 27.4017 34.353 27.9215 34.353H32.1568C32.6767 34.353 33.098 33.9317 33.098 33.4118C33.098 32.892 32.6767 32.4706 32.1568 32.4706H27.9215ZM33.2549 25.0981C33.2549 24.5782 32.8335 24.1569 32.3137 24.1569C31.7938 24.1569 31.3725 24.5782 31.3725 25.0981V28.3922H27.9215C27.4017 28.3922 26.9804 28.8135 26.9804 29.3334C26.9804 29.8532 27.4017 30.2746 27.9215 30.2746H32.1568C32.1832 30.2746 32.2094 30.2735 32.2353 30.2713C32.2611 30.2735 32.2873 30.2746 32.3137 30.2746C32.8335 30.2746 33.2549 29.8532 33.2549 29.3334V25.0981ZM13.647 32.4706C13.1272 32.4706 12.7058 32.892 12.7058 33.4118C12.7058 33.9317 13.1272 34.353 13.647 34.353H24C24.5198 34.353 24.9411 33.9317 24.9411 33.4118C24.9411 32.892 24.5198 32.4706 24 32.4706H13.647ZM24.9411 25.2549C24.9411 24.7351 25.3625 24.3138 25.8823 24.3138H28.0784C28.5982 24.3138 29.0196 24.7351 29.0196 25.2549C29.0196 25.7748 28.5982 26.1961 28.0784 26.1961H25.8823C25.3625 26.1961 24.9411 25.7748 24.9411 25.2549ZM21.8039 28.3922C21.284 28.3922 20.8627 28.8135 20.8627 29.3334C20.8627 29.8532 21.284 30.2746 21.8039 30.2746H24C24.5198 30.2746 24.9411 29.8532 24.9411 29.3334C24.9411 28.8135 24.5198 28.3922 24 28.3922H21.8039Z" fill="#464E6A"/>
<path fill-rule="evenodd" clip-rule="evenodd" d="M9.56862 2.50977C9.04882 2.50977 8.62744 2.93115 8.62744 3.45094V19.1372H31.3725V8.88103H26.9804C26.2874 8.88103 25.7255 8.31919 25.7255 7.62613V2.50977H9.56862ZM13.3333 6.27447C12.8135 6.27447 12.3921 6.69585 12.3921 7.21565C12.3921 7.73544 12.8135 8.15682 13.3333 8.15682H21.9164C22.4362 8.15682 22.8576 7.73544 22.8576 7.21565C22.8576 6.69585 22.4362 6.27447 21.9164 6.27447H13.3333ZM12.3921 11.4509C12.3921 10.9311 12.8135 10.5098 13.3333 10.5098H26.0392C26.559 10.5098 26.9804 10.9311 26.9804 11.4509C26.9804 11.9707 26.559 12.3921 26.0392 12.3921H13.3333C12.8135 12.3921 12.3921 11.9707 12.3921 11.4509ZM13.3333 14.7451C12.8135 14.7451 12.3921 15.1664 12.3921 15.6862C12.3921 16.2061 12.8135 16.6274 13.3333 16.6274H26.0392C26.559 16.6274 26.9804 16.2061 26.9804 15.6862C26.9804 15.1664 26.559 14.7451 26.0392 14.7451H13.3333Z" fill="#464E6A"/>
<path d="M31.3726 6.50977C31.3726 5.98448 31.269 5.46434 31.0681 4.97904C30.867 4.49373 30.5724 4.05278 30.201 3.68134C29.8295 3.30991 29.3886 3.01527 28.9032 2.81425C28.418 2.61323 27.8979 2.50977 27.3726 2.50977V6.50977H31.3726Z" fill="#464E6A"/>
</svg>
