<svg width="34" height="34" viewBox="0 0 34 34" fill="none" xmlns="http://www.w3.org/2000/svg">
<path d="M32.9283 1.76972H18.0734V1.07255C18.0734 0.480236 17.5932 0 17.0009 0C16.4085 0 15.9283 0.480236 15.9283 1.07255V1.76972H1.07341C0.481098 1.76972 0.000976562 2.24995 0.000976562 2.84226V6.3817C0.000976562 6.97401 0.481098 7.45424 1.07341 7.45424H1.77058V25.8486C1.77058 26.4409 2.25081 26.9211 2.84312 26.9211H14.8558L10.8337 32.284C10.4784 32.7578 10.5743 33.4301 11.0482 33.7855C11.2411 33.9303 11.4669 34 11.6909 34C12.0169 34 12.339 33.8519 12.5497 33.5709L15.9283 29.0662V32.9275C15.9283 33.5198 16.4085 34 17.0009 34C17.5932 34 18.0734 33.5198 18.0734 32.9275V29.0662L21.452 33.5709C21.6627 33.8519 21.9847 34 22.3108 34C22.5348 34 22.7606 33.9302 22.9535 33.7855C23.4274 33.4301 23.5235 32.7577 23.168 32.284L19.1459 26.9211H31.1586C31.7509 26.9211 32.231 26.4409 32.231 25.8486V7.45424H32.9283C33.5206 7.45424 34.0007 6.97401 34.0007 6.3817V2.84226C34.0007 2.24995 33.5206 1.76972 32.9283 1.76972ZM2.14595 5.30915V3.91481H31.8556V5.30915H2.14595ZM30.086 24.776H3.91567V7.45424H30.0859L30.086 24.776Z" fill="#464E6A"/>
<path d="M30.086 24.776H3.91567V7.45424H30.0859L30.086 24.776Z" fill="#464E6A"/>
<path d="M8.1514 16.3028H24.0789C24.6712 16.3028 25.1514 15.8226 25.1514 15.2303C25.1514 14.638 24.6712 14.1577 24.0789 14.1577H8.1514C7.55909 14.1577 7.07886 14.638 7.07886 15.2303C7.07886 15.8226 7.55909 16.3028 8.1514 16.3028Z" fill="#F9FCFF"/>
<path d="M8.1514 12.7636H11.6908C12.2831 12.7636 12.7634 12.2835 12.7634 11.6911C12.7634 11.0988 12.2831 10.6185 11.6908 10.6185H8.1514C7.55909 10.6185 7.07886 11.0988 7.07886 11.6911C7.07886 12.2835 7.55909 12.7636 8.1514 12.7636Z" fill="#F9FCFF"/>
<path d="M8.1514 19.8422H18.7697C19.362 19.8422 19.8423 19.362 19.8423 18.7697C19.8423 18.1774 19.362 17.6971 18.7697 17.6971H8.1514C7.55909 17.6971 7.07886 18.1774 7.07886 18.7697C7.07886 19.362 7.55909 19.8422 8.1514 19.8422Z" fill="#F9FCFF"/>
</svg>
