<svg width="40" height="41" viewBox="0 0 40 41" fill="none" xmlns="http://www.w3.org/2000/svg">
<path d="M19.4999 35.6453V24.1011C19.4999 19.0818 19.7832 18.7566 24.7399 18.7566C24.4431 18.5789 24.1299 18.4025 23.7989 18.2261C22.8108 17.8004 21.7493 17.5145 20.6321 17.4139C22.894 15.9542 24.3975 13.4108 24.3975 10.5104C24.3975 5.97756 20.7363 2.3031 16.2222 2.3031C11.7063 2.3031 8.04641 5.978 8.04641 10.5104C8.04641 13.4108 9.54862 15.9542 11.8118 17.4139C6.4803 17.8927 2.28564 22.4013 2.28564 27.8767V36.3946L2.30665 36.5276L2.89213 36.7113C8.3991 38.4389 13.1845 39.0152 17.1236 39.0152C17.7214 39.0991 18.8825 39.0177 20.2836 38.8396C19.6015 38.155 19.4999 37.1511 19.4999 35.6453Z" fill="#464E6A"/>
<path fill-rule="evenodd" clip-rule="evenodd" d="M39.5703 21.9169V24.5011H20.4297V21.9169C20.4297 20.5915 21.5039 19.5132 22.8242 19.5171H37.1797C38.4961 19.5171 39.5703 20.5915 39.5703 21.9169ZM34.4141 30.6732H35.6758C36.1133 30.6732 36.4727 30.3124 36.4727 29.8732C36.4727 29.4301 36.1172 29.0733 35.6758 29.0733H34.4141C33.9727 29.0733 33.6172 29.4301 33.6172 29.8732C33.6172 30.3163 33.9727 30.6732 34.4141 30.6732ZM34.4141 33.6141H35.6758C36.1133 33.6141 36.4727 33.2573 36.4727 32.8142C36.4727 32.3711 36.1172 32.0142 35.6758 32.0142H34.4141C33.9727 32.0142 33.6172 32.3711 33.6172 32.8142C33.6172 33.2573 33.9727 33.6141 34.4141 33.6141ZM34.4141 36.559H35.6758C36.1133 36.559 36.4727 36.2022 36.4727 35.7591C36.4727 35.316 36.1172 34.9591 35.6758 34.9591H34.4141C33.9727 34.9591 33.6172 35.316 33.6172 35.7591C33.6172 36.2022 33.9727 36.559 34.4141 36.559ZM28.3906 36.559H31.6133C32.0508 36.559 32.4102 36.2022 32.4102 35.7591C32.4102 35.316 32.0547 34.9591 31.6133 34.9591H28.3906C27.9492 34.9591 27.5938 35.316 27.5938 35.7591C27.5938 36.2022 27.9492 36.559 28.3906 36.559ZM24.3242 30.6732H25.5859C26.0273 30.6732 26.3828 30.3124 26.3828 29.8732C26.3828 29.4301 26.0273 29.0733 25.5859 29.0733H24.3242C23.8828 29.0733 23.5273 29.4301 23.5273 29.8732C23.5273 30.3163 23.8828 30.6732 24.3242 30.6732ZM24.3242 33.6141H25.5859C26.0273 33.6141 26.3828 33.2573 26.3828 32.8142C26.3828 32.3711 26.0273 32.0142 25.5859 32.0142H24.3242C23.8828 32.0142 23.5273 32.3711 23.5273 32.8142C23.5273 33.2573 23.8828 33.6141 24.3242 33.6141ZM24.3242 36.559H25.5859C26.0273 36.559 26.3828 36.2022 26.3828 35.7591C26.3828 35.316 26.0273 34.9591 25.5859 34.9591H24.3242C23.8828 34.9591 23.5273 35.316 23.5273 35.7591C23.5273 36.2022 23.8828 36.559 24.3242 36.559ZM30.6328 32.0142H29.3711C28.9297 32.0142 28.5703 32.3711 28.5742 32.8142C28.5742 33.2573 28.9297 33.6141 29.3711 33.6141H30.6328C31.0742 33.6141 31.4297 33.2573 31.4297 32.8142C31.4297 32.3711 31.0742 32.0142 30.6328 32.0142ZM30.6328 29.0693H29.3711C28.9297 29.0693 28.5703 29.4301 28.5742 29.8693C28.5742 30.3124 28.9297 30.6692 29.3711 30.6692H30.6328C31.0742 30.6692 31.4297 30.3124 31.4297 29.8693C31.4297 29.4262 31.0742 29.0693 30.6328 29.0693ZM20.4297 36.3237V26.1009H39.5664V36.3237C39.5664 37.6452 38.4961 38.7236 37.1758 38.7236H22.8203C21.5039 38.7236 20.4297 37.6491 20.4297 36.3237Z" fill="#464E6A"/>
</svg>
