<svg width="40" height="40" viewBox="0 0 40 40" fill="none" xmlns="http://www.w3.org/2000/svg">
<path d="M21.7593 37.9692C21.9611 38.1539 22.1667 38.3272 22.3741 38.4965C20.8452 38.7127 19.0923 38.8571 17.1236 38.8571C13.1845 38.8571 8.3991 38.283 2.89213 36.562L2.30665 36.3791L2.28564 36.2465V27.7613C2.28564 22.3069 6.4803 17.8155 11.8118 17.3386C9.54862 15.8845 8.04641 13.3509 8.04641 10.4615C8.04641 5.94657 11.7063 2.28577 16.2222 2.28577C20.7363 2.28577 24.3975 5.94614 24.3975 10.4615C24.3975 13.3509 22.894 15.8845 20.6321 17.3386C21.7493 17.4388 22.8108 17.7236 23.7989 18.1477C19.7627 20.574 17.2531 25.2435 17.8093 30.1444C18.1629 33.2626 19.4922 35.8955 21.7593 37.9692ZM36.4826 36.0027C34.8067 37.6428 32.7733 38.5827 30.4436 38.8041C27.4076 39.0921 24.7296 38.2086 22.4757 36.1463C20.5801 34.4126 19.5119 32.2382 19.2218 29.6884C18.6157 24.3469 22.4494 19.3261 27.752 18.5122C28.2692 18.433 28.7913 18.3949 29.3107 18.3384C29.3474 18.3384 29.3842 18.3384 29.4209 18.3384C29.9771 18.3962 30.5398 18.4207 31.0899 18.517C33.8466 18.9974 36.0556 20.3776 37.7074 22.6346C38.7318 24.0362 39.3654 25.6102 39.5558 27.3321C39.9277 30.7063 38.916 33.6197 36.4826 36.0027ZM38.2347 29.5445C38.1056 29.4902 37.9704 29.4425 37.8431 29.3795C37.2725 29.0929 36.939 28.6431 36.9132 27.9924C36.8948 27.515 36.8148 27.4178 36.3273 27.3097C35.8153 27.1986 35.653 26.9689 35.7965 26.4643C35.8928 26.1287 36.0499 25.8097 36.1934 25.489C36.3439 25.1538 36.4437 24.8234 36.3667 24.4436C36.2975 24.1018 36.3076 23.7531 36.6205 23.4665C36.329 23.1352 36.0608 22.8149 35.7724 22.5103C35.6372 22.3677 35.5243 22.4198 35.4819 22.6197C35.4727 22.6692 35.4731 22.7208 35.4622 22.7703C35.3567 23.217 35.0811 23.3203 34.7209 23.0468C34.6605 23.0013 34.6076 22.9361 34.5402 22.912C34.4256 22.8722 34.2965 22.8215 34.1853 22.8403C33.7972 22.9059 33.7338 22.86 33.7683 22.4753C33.7937 22.2036 33.6979 22.1016 33.4296 22.1139C33.3373 22.1187 33.2458 22.1375 33.1535 22.1397C32.8625 22.1441 32.6809 21.924 32.7527 21.6426C32.7899 21.4969 32.8704 21.3626 32.9054 21.2173C32.9312 21.1096 32.9654 20.9412 32.9107 20.8865C32.6884 20.6686 32.449 20.4585 32.1869 20.2936C31.7139 19.9951 31.2356 20.213 30.7652 20.3242C30.7153 20.708 30.6624 20.7596 30.2966 20.6511C29.8607 20.5211 29.4472 20.3395 29.1505 19.9649C29.1129 19.9181 29.0241 19.8809 28.9637 19.887C28.5147 19.9382 28.0658 19.9973 27.619 20.0669C27.5551 20.0774 27.454 20.164 27.4558 20.213C27.4566 20.2992 27.5131 20.448 27.5669 20.4577C27.7122 20.4835 27.8807 20.483 28.0154 20.4305C28.2001 20.3592 28.3572 20.2192 28.5366 20.1295C28.7554 20.0218 28.9116 20.1015 28.9733 20.3364C29.0477 20.6152 28.9475 20.851 28.7217 20.9963C28.4128 21.1928 28.0736 21.3424 27.752 21.5232C27.5271 21.6488 27.2965 21.7735 27.0974 21.9336C26.9372 22.0627 26.8257 22.2627 26.953 22.4688C27.0711 22.6604 27.2816 22.6145 27.4562 22.5532C27.6343 22.4893 27.8041 22.3966 27.9708 22.3029C28.0723 22.2465 28.1568 22.1577 28.2561 22.0968C28.4548 21.9756 28.5607 22.0163 28.6364 22.2329C28.7641 22.5961 29.0074 22.6797 29.3321 22.4692C29.4726 22.3782 29.599 22.2631 29.7456 22.1844C29.9622 22.0675 30.1933 22.1927 30.2152 22.4185C30.2454 22.7519 30.3232 22.8162 30.6527 22.7795C30.847 22.7576 31.0413 22.7287 31.236 22.7024C31.2531 22.7226 31.2693 22.7418 31.2872 22.7615C31.2194 22.8884 31.1796 23.049 31.0776 23.1339C30.9192 23.2621 30.7232 23.3536 30.5333 23.435C30.2563 23.5531 30.0073 23.6249 29.9977 23.6411C29.9977 23.6411 30.3867 23.7973 30.181 23.8555C29.8437 23.9513 29.3321 24.5 30.0659 24.2716C30.199 24.2318 30.3324 24.1994 30.518 24.1491C30.3631 24.6142 30.0362 24.7971 29.7128 24.9704C28.7444 25.489 28.7112 26.7299 29.2052 27.3675C29.312 27.5058 29.4013 27.6616 29.477 27.8187C29.5654 28.0007 29.5592 28.2186 29.3846 28.3144C29.2669 28.3783 29.0311 28.3656 28.9265 28.2851C28.6722 28.0917 28.4412 27.8541 28.2412 27.6012C27.9874 27.2813 27.8036 26.9002 27.535 26.5952C26.6655 25.6097 25.6827 25.8272 24.8421 26.5685C24.6299 26.7562 24.6574 26.9255 24.892 27.0805C24.9756 27.1347 25.0661 27.1807 25.1593 27.217C25.533 27.3684 25.908 27.5128 26.2822 27.6629C26.3583 27.6931 26.4371 27.7289 26.501 27.7815C26.6301 27.8852 26.6375 27.9963 26.4686 28.0641C26.3456 28.1131 26.213 28.1425 26.0822 28.1713C25.8367 28.2234 25.5781 28.2387 25.3488 28.3311C25.2162 28.3858 25.0653 28.5498 25.0473 28.6811C25.032 28.7927 25.1808 28.9454 25.2876 29.0491C25.3676 29.1253 25.502 29.1419 25.6004 29.2032C25.7383 29.2859 25.8875 29.3681 25.9951 29.485C26.1758 29.681 26.3045 29.7304 26.5395 29.5987C26.7661 29.4727 26.9849 29.3318 27.2037 29.1913C27.4632 29.0255 27.5113 29.0465 27.6619 29.3117C27.8478 29.6416 28.1038 29.9134 28.52 29.8398C28.818 29.7869 29.0993 29.6491 29.389 29.5528C29.5864 29.4863 29.7806 29.3887 29.9824 29.3642C30.3968 29.3143 30.714 29.6652 30.7385 30.151C30.7621 30.6362 30.5368 30.9999 30.1933 31.3154C29.8572 31.6252 29.6765 31.9792 29.831 32.4592C29.9964 32.9703 29.8213 33.4092 29.4293 33.7488C29.1588 33.9846 28.8591 34.1898 28.5598 34.3911C28.2088 34.6257 27.6264 35.9152 27.7546 36.3694C27.7796 36.4539 27.7866 36.4666 27.7805 36.5589C27.7468 37.042 27.4982 36.9575 27.0663 37.0332C26.8208 37.0761 26.8458 36.5589 26.7898 36.3222C26.7359 36.0942 26.7368 35.8421 26.7718 35.6098C26.8064 35.3818 26.9132 35.1643 26.9919 34.9429C27.1556 34.4791 27.0374 34.0853 26.6966 33.7488C26.5465 33.6017 26.3841 33.4683 26.2314 33.3247C25.6753 32.8049 25.4053 32.1494 25.3759 31.4007C25.3615 31.0235 25.547 30.8515 25.9199 30.8161C25.9991 30.8078 26.0765 30.7981 26.1553 30.789C26.1106 30.4743 25.9964 30.3557 25.6897 30.3369C25.3983 30.3181 25.2289 30.154 25.1165 29.9138C25.0639 29.8018 25.0543 29.6701 25.011 29.5541C24.906 29.2762 24.8316 28.9743 24.6684 28.7345C24.5213 28.5183 24.401 28.3311 24.4054 28.0558C24.4085 27.9276 24.3161 27.778 24.2264 27.6712C24.0234 27.4305 23.7989 27.2082 23.577 26.9851C23.4908 26.8975 23.3854 26.8271 23.241 26.7098C23.2318 26.9304 23.2309 27.0721 23.2169 27.2126C23.1977 27.4121 23.1946 27.62 23.1312 27.8051C23.0966 27.9084 22.9434 28.0466 22.8563 28.0383C22.7456 28.0278 22.5864 27.9018 22.557 27.7959C22.5032 27.6016 22.4892 27.3763 22.5299 27.1793C22.7225 26.2512 22.8043 25.3205 22.6958 24.3771C22.6564 24.0318 22.6087 23.6879 22.5597 23.305C20.749 25.4343 19.8812 29.3055 21.6622 32.7253C23.574 36.397 27.6671 38.244 31.6745 37.2267C32.7238 36.961 33.6581 36.5208 34.4715 35.9603C34.0331 35.8373 33.3627 35.5682 33.3023 33.8687C33.2174 31.4886 33.6003 30.9789 33.8125 30.9789C34.0239 30.9789 34.1521 30.8078 34.8325 31.5735C35.513 32.3376 35.8525 31.9555 35.895 31.4453C35.9379 30.936 36.4481 30.1803 36.6599 30.9622C36.8069 31.5 37.1333 32.1301 37.3932 32.5817C37.8847 31.5915 38.1708 30.547 38.2347 29.5445Z" fill="#464E6A"/>
</svg>
