<svg width="34" height="34" viewBox="0 0 34 34" fill="none" xmlns="http://www.w3.org/2000/svg">
<path d="M31.0819 1.3147H2.91923C1.30957 1.3147 0 2.6237 0 4.23265V6.89611V22.9576V25.6209C0 27.2303 1.30957 28.5398 2.91923 28.5398H12.1608V30.555H8.57364C7.98525 30.555 7.50848 31.0319 7.50848 31.6202C7.50848 32.2086 7.98525 32.6853 8.57364 32.6853H13.2259H20.7738H25.4264C26.0148 32.6853 26.4915 32.2086 26.4915 31.6202C26.4915 31.0319 26.0148 30.555 25.4264 30.555H21.8389V28.5398H31.0819C32.691 28.5398 34 27.2303 34 25.6209V22.9576V6.89611V4.23265C34 2.6237 32.6911 1.3147 31.0819 1.3147ZM2.91923 3.44501H31.082C31.5165 3.44501 31.8698 3.79835 31.8698 4.23265V5.83095H2.13031V4.23265C2.13031 3.79835 2.48422 3.44501 2.91923 3.44501ZM31.8697 21.8925H2.13031V7.96126H31.8697V21.8925ZM19.7086 30.555H14.2911V28.5398H19.7086V30.555ZM31.0819 26.4094H20.7738H13.2259H2.91923C2.48422 26.4094 2.13031 26.0558 2.13031 25.6209V24.0228H31.8697V25.6209C31.8697 26.0558 31.5163 26.4094 31.0819 26.4094Z" fill="#464E6A"/>
<path d="M31.8697 21.8925H2.13031V7.96126H31.8697V21.8925Z" fill="#464E6A"/>
<path d="M19.7086 30.555H14.2911V28.5398H19.7086V30.555Z" fill="#464E6A"/>
<path d="M13.6001 18.2751L20.8251 11.05" stroke="#F9FCFF" stroke-width="1.5" stroke-linecap="round" stroke-linejoin="round"/>
<path d="M24.8 11.6938L28.4063 15.3001L24.8 18.9063" stroke="#F9FCFF" stroke-width="1.5" stroke-linecap="round" stroke-linejoin="round"/>
<path d="M9.40625 11.05L5.80001 14.6563L9.40625 18.2625" stroke="#F9FCFF" stroke-width="1.5" stroke-linecap="round" stroke-linejoin="round"/>
</svg>
