<svg width="38" height="38" viewBox="0 0 38 38" fill="none" xmlns="http://www.w3.org/2000/svg">
<g clip-path="url(#clip0)">
<path fill-rule="evenodd" clip-rule="evenodd" d="M37.9998 18.559V10.7084H32.453C32.1268 10.7084 31.8608 10.4446 31.8608 10.1184V4.56958H15.7995V35.2256H37.9997L37.9998 18.559ZM18.327 31.8378C18.327 32.1664 18.5908 32.43 18.9193 32.43H30.8909C31.2171 32.43 31.4808 32.1664 31.4808 31.8378C31.4808 31.5116 31.2172 31.2479 30.8909 31.2479H18.9193C18.5908 31.2479 18.327 31.5115 18.327 31.8378ZM18.327 27.8578C18.327 28.184 18.5908 28.4477 18.9193 28.4477H34.8822C35.2084 28.4477 35.4721 28.1841 35.4721 27.8578C35.4721 27.5292 35.2084 27.2656 34.8822 27.2656H18.9193C18.5908 27.2656 18.327 27.5292 18.327 27.8578ZM18.327 23.8755C18.327 24.2018 18.5908 24.4654 18.9193 24.4654H34.8822C35.2084 24.4654 35.4721 24.2018 35.4721 23.8755C35.4721 23.5492 35.2084 23.2832 34.8822 23.2832H18.9193C18.5908 23.2832 18.327 23.5492 18.327 23.8755Z" fill="#464E6A"/>
<path d="M37.1638 9.52611L33.0429 5.40533V9.52611H37.1638Z" fill="#464E6A"/>
<path d="M25.7241 14.6102C25.2414 14.8716 24.6894 15.0192 24.1017 15.0192C23.5161 15.0192 22.9641 14.8717 22.4792 14.6102H21.601C21.0266 14.6102 20.5037 14.8449 20.1238 15.2249C19.7439 15.6024 19.5093 16.1254 19.5093 16.6997V19.7255H20.8523V17.7344C20.8523 17.406 21.116 17.1422 21.4446 17.1422C21.7708 17.1422 22.0345 17.406 22.0345 17.7344V19.7255H26.1688V17.7344C26.1688 17.406 26.4347 17.1422 26.761 17.1422C27.0873 17.1422 27.3509 17.406 27.3509 17.7344V19.7255H28.694V16.6997C28.694 16.1254 28.4593 15.6024 28.0794 15.2249C27.7017 14.8449 27.1788 14.6102 26.6044 14.6102H25.7241Z" fill="#464E6A"/>
<path d="M26.3543 10.791C25.5878 10.8894 24.3967 10.8536 23.3932 9.99101C23.0357 10.1921 22.4971 10.4023 21.8513 10.3664V11.5844C21.8513 12.2034 22.1038 12.7666 22.5128 13.1756C22.9218 13.5846 23.4826 13.8371 24.1017 13.8371C24.7208 13.8371 25.284 13.5846 25.6929 13.1756C26.0996 12.7666 26.3544 12.2034 26.3544 11.5844L26.3543 10.791Z" fill="#464E6A"/>
<path d="M21.8513 9.18428C22.2826 9.23126 22.7519 9.07249 23.0759 8.78426C23.3217 8.57195 23.695 8.59868 23.9072 8.84465C24.6939 9.74741 25.7777 9.70941 26.3543 9.6044V8.53845C26.3543 8.26362 26.2403 8.0134 26.0592 7.83231C25.8782 7.65138 25.6279 7.5373 25.353 7.5373H22.8501C22.5752 7.5373 22.3271 7.65138 22.1438 7.83231C21.9628 8.0134 21.8511 8.26362 21.8511 8.53845L21.8513 9.18428Z" fill="#464E6A"/>
<path d="M-0.000244141 18.559V32.9596H6.4448V30.7316H2.58985C2.26355 30.7316 1.99992 30.4657 1.99992 30.1393C1.99992 29.813 2.26363 29.5471 2.58985 29.5471H6.4448V27.3146H2.58985C2.26355 27.3146 1.99992 27.0508 1.99992 26.7246C1.99992 26.3983 2.26363 26.1324 2.58985 26.1324H6.4448V23.8999H2.58985C2.26355 23.8999 1.99992 23.6363 1.99992 23.3101C1.99992 22.9815 2.26363 22.7178 2.58985 22.7178H6.4448V20.8496V6.8355H-0.000244141V18.559Z" fill="#464E6A"/>
<path d="M14.6174 5.86345H7.62924V33.9317H14.6174V31.46H10.445C10.1187 31.46 9.85511 31.1964 9.85511 30.8678C9.85511 30.5415 10.1188 30.2779 10.445 30.2779H14.6174V27.8018H10.445C10.1187 27.8018 9.85511 27.5359 9.85511 27.2096C9.85511 26.8833 10.1188 26.6196 10.445 26.6196H14.6174V24.1435H10.445C10.1187 24.1435 9.85511 23.8776 9.85511 23.5513C9.85511 23.225 10.1188 22.9614 10.445 22.9614H14.6174V5.86345Z" fill="#464E6A"/>
<path d="M26.9846 13.4482C27.7332 13.5376 28.4081 13.8795 28.9176 14.3891C29.5098 14.9814 29.8786 15.7991 29.8786 16.6998V20.318C29.8786 20.6441 29.6126 20.9102 29.2863 20.9102M29.2863 20.9102C25.8314 20.9102 22.3743 20.9102 18.9193 20.9102M29.2863 20.9102H18.9193M18.9193 20.9102C18.5908 20.9102 18.327 20.6441 18.327 20.318V16.6998C18.327 15.7991 18.6958 14.9814 19.288 14.3891C19.7975 13.8795 20.4701 13.5376 21.2211 13.4482M-0.000244141 18.559V32.9596H6.4448V30.7316H2.58985C2.26355 30.7316 1.99992 30.4657 1.99992 30.1393C1.99992 29.813 2.26363 29.5471 2.58985 29.5471H6.4448V27.3146H2.58985C2.26355 27.3146 1.99992 27.0508 1.99992 26.7246C1.99992 26.3983 2.26363 26.1324 2.58985 26.1324H6.4448V23.8999H2.58985C2.26355 23.8999 1.99992 23.6363 1.99992 23.3101C1.99992 22.9815 2.26363 22.7178 2.58985 22.7178H6.4448V20.8496V6.8355H-0.000244141V18.559ZM37.9998 18.559V10.7084H32.453C32.1268 10.7084 31.8608 10.4446 31.8608 10.1184V4.56958H15.7995V35.2256H37.9997L37.9998 18.559ZM14.6174 5.86345H7.62924V33.9317H14.6174V31.46H10.445C10.1187 31.46 9.85511 31.1964 9.85511 30.8678C9.85511 30.5415 10.1188 30.2779 10.445 30.2779H14.6174V27.8018H10.445C10.1187 27.8018 9.85511 27.5359 9.85511 27.2096C9.85511 26.8833 10.1188 26.6196 10.445 26.6196H14.6174V24.1435H10.445C10.1187 24.1435 9.85511 23.8776 9.85511 23.5513C9.85511 23.225 10.1188 22.9614 10.445 22.9614H14.6174V5.86345ZM26.3543 10.791C25.5878 10.8894 24.3967 10.8536 23.3932 9.99101C23.0357 10.1921 22.4971 10.4023 21.8513 10.3664V11.5844C21.8513 12.2034 22.1038 12.7666 22.5128 13.1756C22.9218 13.5846 23.4826 13.8371 24.1017 13.8371C24.7208 13.8371 25.284 13.5846 25.6929 13.1756C26.0996 12.7666 26.3544 12.2034 26.3544 11.5844L26.3543 10.791ZM21.8513 9.18428C22.2826 9.23126 22.7519 9.07249 23.0759 8.78426C23.3217 8.57195 23.695 8.59868 23.9072 8.84465C24.6939 9.74741 25.7777 9.70941 26.3543 9.6044V8.53845C26.3543 8.26362 26.2403 8.0134 26.0592 7.83231C25.8782 7.65138 25.6279 7.5373 25.353 7.5373H22.8501C22.5752 7.5373 22.3271 7.65138 22.1438 7.83231C21.9628 8.0134 21.8511 8.26362 21.8511 8.53845L21.8513 9.18428ZM25.7241 14.6102C25.2414 14.8716 24.6894 15.0192 24.1017 15.0192C23.5161 15.0192 22.9641 14.8717 22.4792 14.6102H21.601C21.0266 14.6102 20.5037 14.8449 20.1238 15.2249C19.7439 15.6024 19.5093 16.1254 19.5093 16.6997V19.7255H20.8523V17.7344C20.8523 17.406 21.116 17.1422 21.4446 17.1422C21.7708 17.1422 22.0345 17.406 22.0345 17.7344V19.7255H26.1688V17.7344C26.1688 17.406 26.4347 17.1422 26.761 17.1422C27.0873 17.1422 27.3509 17.406 27.3509 17.7344V19.7255H28.694V16.6997C28.694 16.1254 28.4593 15.6024 28.0794 15.2249C27.7017 14.8449 27.1788 14.6102 26.6044 14.6102H25.7241ZM18.9193 32.43C18.5908 32.43 18.327 32.1664 18.327 31.8378C18.327 31.5115 18.5908 31.2479 18.9193 31.2479H30.8909C31.2172 31.2479 31.4808 31.5116 31.4808 31.8378C31.4808 32.1664 31.2171 32.43 30.8909 32.43H18.9193ZM18.9193 28.4477C18.5908 28.4477 18.327 28.184 18.327 27.8578C18.327 27.5292 18.5908 27.2656 18.9193 27.2656H34.8822C35.2084 27.2656 35.4721 27.5292 35.4721 27.8578C35.4721 28.1841 35.2084 28.4477 34.8822 28.4477H18.9193ZM18.9193 24.4654C18.5908 24.4654 18.327 24.2018 18.327 23.8755C18.327 23.5492 18.5908 23.2832 18.9193 23.2832H34.8822C35.2084 23.2832 35.4721 23.5492 35.4721 23.8755C35.4721 24.2018 35.2084 24.4654 34.8822 24.4654H18.9193ZM37.1638 9.52611L33.0429 5.40533V9.52611H37.1638Z" stroke="#464E6A" stroke-width="0.2"/>
<g clip-path="url(#clip1)">
<path d="M27.6883 12.7622C28.5546 12.2054 29.1297 11.2356 29.1297 10.1297C29.1297 8.40133 27.7284 7 26.0005 7C24.2718 7 22.8708 8.40133 22.8708 10.1297C22.8708 11.2357 23.4459 12.2056 24.3123 12.7623C22.2712 12.9449 20.6655 14.6643 20.6655 16.7523V20.0006L20.6738 20.0514L20.8977 20.1213C23.006 20.7799 24.838 21 26.3458 21C29.2906 21 30.9976 20.16 31.1034 20.1067L31.3125 20.0006H31.3345V16.7523C31.3347 14.6645 29.7296 12.9453 27.6883 12.7622Z" fill="white"/>
</g>
<g clip-path="url(#clip2)">
<path d="M11.5944 9.90615C11.5944 8.30124 12.8953 7 14.5005 7C14.5727 7 14.6443 7.00264 14.7152 7.00782V19.9996C13.3355 19.9895 11.6708 19.7803 9.76224 19.184L9.55427 19.1191L9.54663 19.072V16.0557C9.54663 14.1169 11.0376 12.5203 12.9329 12.3507C12.1284 11.8338 11.5944 10.9331 11.5944 9.90615Z" fill="white"/>
</g>
<path d="M3.89021 10.6826C3.89021 9.20114 5.09107 8 6.57281 8L6.61213 8.00028V20C5.37032 19.9762 3.88809 19.7745 2.19902 19.2468L2.00705 19.1869L2 19.1434V16.3591C2 14.5694 3.3763 13.0956 5.12577 12.9391C4.38321 12.462 3.89021 11.6306 3.89021 10.6826Z" fill="#F9FCFF"/>
</g>
<defs>
<clipPath id="clip0">
<rect width="38" height="38" fill="white"/>
</clipPath>
<clipPath id="clip1">
<rect width="14" height="14" fill="white" transform="translate(19 7)"/>
</clipPath>
<clipPath id="clip2">
<rect width="13" height="13" fill="white" transform="translate(8 7)"/>
</clipPath>
</defs>
</svg>
