<svg width="40" height="40" viewBox="0 0 40 40" fill="none" xmlns="http://www.w3.org/2000/svg">
<g clip-path="url(#clip0)">
<path d="M38.3722 24.7323V17.7195H37.3112V24.6788C36.1224 24.8939 35.307 25.9977 35.451 27.1972C35.5951 28.3967 36.6484 29.2764 37.8545 29.2035C39.0602 29.131 40.001 28.1314 39.9999 26.9233C39.9999 25.8876 39.2564 25.011 38.3722 24.7323ZM37.7084 28.147C37.2131 28.1494 36.7652 27.8531 36.5735 27.3961C36.3822 26.9396 36.4851 26.4122 36.8346 26.0609C37.1838 25.7097 37.7105 25.604 38.1684 25.7929C38.6264 25.9818 38.9251 26.4284 38.9251 26.9237C38.9262 27.5972 38.3819 28.1442 37.7084 28.147Z" fill="#464E6A"/>
<path d="M34.1283 19.6991V24.3506C30.5688 27.0374 28.7431 28.2867 26.6195 28.8C23.5125 27.4461 21.8196 26.5758 19.0977 24.3506V19.5945L25.3209 22.1889C25.7678 22.3599 26.2438 22.4438 26.7224 22.4359C27.2056 22.4435 27.6857 22.3599 28.1378 22.1889L34.1283 19.6991Z" fill="#464E6A"/>
<path d="M25.7146 12.0399L14.7328 16.6122C14.7228 16.6164 14.7131 16.6205 14.7041 16.6247C14.7127 16.6288 14.7228 16.633 14.7328 16.6371L25.7146 21.2095C26.2485 21.4316 27.1848 21.4316 27.7188 21.2095L38.7006 16.6371C38.7106 16.633 38.7203 16.6288 38.7293 16.6247C38.7203 16.6205 38.7106 16.6164 38.7006 16.6122L27.7188 12.0399C27.1848 11.8174 26.2485 11.8174 25.7146 12.0399Z" fill="#464E6A"/>
<path d="M24.2037 36.0215H4.48705C3.97556 36.0239 3.48409 35.8216 3.12283 35.4596C2.76157 35.0973 2.56022 34.6055 2.56402 34.094V3.45737C2.56056 2.94691 2.76226 2.45648 3.12387 2.09591C3.48547 1.735 3.97625 1.53468 4.48705 1.53951H19.4514V6.04697C19.4469 6.65448 19.6848 7.23851 20.1121 7.67023C20.5389 8.1016 21.1205 8.34543 21.7281 8.3475H26.1709V10.8487C25.8781 10.876 25.591 10.9471 25.3196 11.0604L14.3278 15.6328C13.6108 15.9312 13.5065 16.3823 13.5065 16.6247C13.5065 16.8668 13.6191 17.3179 14.3364 17.6166L18.0367 19.1525V24.8546C18.0367 25.1482 18.1416 25.1943 18.4513 25.3983C21.0604 27.1166 22.8493 28.1652 26.1709 29.8305V34.094C26.1709 35.1667 25.2761 36.0215 24.2037 36.0215Z" fill="#464E6A"/>
<path d="M1.92311 38.4972H21.7282C22.5961 38.4903 23.3573 37.9156 23.6018 37.0825H4.48716C3.69418 37.0846 2.93332 36.7703 2.37313 36.2094C1.81294 35.6482 1.49968 34.887 1.50314 34.094V4.2262C0.618292 4.42409 -0.00786885 5.21327 7.47258e-05 6.11987V36.579C-0.003379 37.0894 0.198319 37.5802 0.559924 37.9408C0.921529 38.3014 1.4123 38.5017 1.92311 38.4972Z" fill="#464E6A"/>
<path d="M20.5123 6.04688C20.5078 6.37292 20.6335 6.6872 20.8618 6.91999C21.0901 7.15277 21.402 7.2847 21.728 7.28643H25.4135L20.5123 2.27783V6.04688Z" fill="#464E6A"/>
</g>
<defs>
<clipPath id="clip0">
<rect width="40" height="40" fill="white"/>
</clipPath>
</defs>
</svg>
