<svg width="18" height="18" viewBox="0 0 18 18" fill="none" xmlns="http://www.w3.org/2000/svg">
<path d="M9.00027 10.1094L2.35564 16.7623C2.35546 16.7624 2.35529 16.7626 2.35511 16.7628C2.2119 16.9087 2.0091 16.9896 1.802 16.9903L1.80147 16.9903L1.79787 16.9903C1.59077 16.9903 1.38857 16.9098 1.24356 16.7663L1.24309 16.7659C1.09534 16.6184 1.01212 16.4183 1.0117 16.2095C1.01129 16.0007 1.0937 15.8003 1.24087 15.6522L1.24113 15.6519L7.88827 8.99593L1.24114 2.34112C1.24104 2.34101 1.24093 2.34091 1.24083 2.34081C1.09282 2.19412 1.0114 1.99627 1.01127 1.78682M9.00027 10.1094L16.2027 16.8439C16.2863 16.8442 16.3692 16.8278 16.4466 16.7959C16.5239 16.764 16.5942 16.7171 16.6533 16.658C16.7125 16.5988 16.7594 16.5286 16.7913 16.4512C16.8232 16.3739 16.8395 16.291 16.8393 16.2073H16.9893C16.9893 16.2072 16.9893 16.207 16.9893 16.2069C16.9892 15.9981 16.9078 15.7995 16.759 15.6527C16.7588 15.6525 16.7587 15.6524 16.7585 15.6523L10.1117 8.99653L16.7594 2.34233L16.7596 2.34212C16.9067 2.19425 16.9893 1.9941 16.9891 1.78549C16.989 1.57689 16.9062 1.37684 16.7589 1.22917L16.7585 1.22878C16.4612 0.932962 15.946 0.931758 15.6463 1.22999L15.6459 1.23032L9.00026 7.88426L2.3522 1.22851L2.3522 1.22851L2.35147 1.22779C2.05283 0.932879 1.53807 0.93442 1.24101 1.22925L1.241 1.22925L1.24082 1.22944C1.16743 1.30253 1.10934 1.38951 1.06993 1.48529C1.03058 1.58092 1.01064 1.68342 1.01127 1.78682M9.00027 10.1094L15.6483 16.7651L15.6487 16.7654C15.7961 16.9121 15.9936 16.9938 16.2022 16.9939L9.00027 10.1094ZM1.01127 1.78682C1.01127 1.78665 1.01127 1.78648 1.01127 1.78632H1.16127L1.01127 1.78732C1.01127 1.78716 1.01127 1.78699 1.01127 1.78682Z" fill="#4D4D4D" stroke="#4D4D4D" stroke-width="0.3"/>
</svg>
