<svg width="23" height="18" viewBox="0 0 23 18" fill="none" xmlns="http://www.w3.org/2000/svg">
<path d="M19.038 10.5365V17.1219C19.038 17.3597 18.9524 17.5655 18.7811 17.7393C18.6098 17.9131 18.407 18 18.1726 18H12.9803V12.7317H9.51878V18H4.32647C4.0921 18 3.88927 17.9131 3.718 17.7393C3.54672 17.5655 3.46109 17.3597 3.46109 17.1219V10.5365C3.46109 10.5274 3.46334 10.5137 3.46785 10.4954C3.47236 10.4771 3.47461 10.4634 3.47461 10.4542L11.2495 3.95118L19.0245 10.4542C19.0335 10.4725 19.038 10.5 19.038 10.5365Z" fill="#4D4D4D"/>
<path d="M22.0533 9.5899L21.215 10.6051C21.1429 10.6875 21.0482 10.7378 20.931 10.7561H20.8905C20.7733 10.7561 20.6786 10.724 20.6065 10.66L11.2495 2.74386L1.89258 10.66C1.78441 10.7332 1.67623 10.7652 1.56806 10.7561C1.45087 10.7378 1.35622 10.6875 1.2841 10.6051L0.445763 9.5899C0.373648 9.49844 0.342097 9.39097 0.351112 9.26749C0.360126 9.14402 0.409706 9.04569 0.49985 8.97252L10.2219 0.754534C10.5104 0.51673 10.8529 0.397827 11.2495 0.397827C11.6462 0.397827 11.9887 0.51673 12.2772 0.754534L15.5765 3.55332L19.038 6.47557L21.9992 8.97252C22.0894 9.04569 22.139 9.14402 22.148 9.26749C22.157 9.39097 22.1255 9.49844 22.0533 9.5899Z" fill="#4D4D4D"/>
</svg>
