<svg width="313" height="120" viewBox="0 0 313 120" fill="none" xmlns="http://www.w3.org/2000/svg">
<g clip-path="url(#clip0)">
<rect width="313" height="120" fill="white"/>
<rect width="313" height="120" fill="#1D233A"/>
<path fill-rule="evenodd" clip-rule="evenodd" d="M57.5408 28.3195C59.9031 28.3195 61.8182 30.2345 61.8182 32.5968V83.9255C61.8182 86.2878 59.9031 88.2028 57.5408 88.2028C55.1785 88.2028 53.2634 86.2878 53.2634 83.9255V32.5968C53.2634 30.2345 55.1785 28.3195 57.5408 28.3195Z" fill="white"/>
<path fill-rule="evenodd" clip-rule="evenodd" d="M94.3262 52.2728C96.6885 52.2728 98.6036 54.1879 98.6036 56.5502V83.07C98.6036 85.4323 96.6885 87.3474 94.3262 87.3474C91.9639 87.3474 90.0488 85.4323 90.0488 83.07V56.5502C90.0488 54.1879 91.9639 52.2728 94.3262 52.2728Z" fill="white"/>
<path fill-rule="evenodd" clip-rule="evenodd" d="M75.5059 52.2728C77.8682 52.2728 79.7833 54.1879 79.7833 56.5502V83.07C79.7833 85.4323 77.8682 87.3474 75.5059 87.3474C73.1436 87.3474 71.2285 85.4323 71.2285 83.07V56.5502C71.2285 54.1879 73.1436 52.2728 75.5059 52.2728Z" fill="white"/>
<path fill-rule="evenodd" clip-rule="evenodd" d="M39.5757 52.2728C41.938 52.2728 43.8531 54.1879 43.8531 56.5502V83.07C43.8531 85.4323 41.938 87.3474 39.5757 87.3474C37.2134 87.3474 35.2983 85.4323 35.2983 83.07V56.5502C35.2983 54.1879 37.2134 52.2728 39.5757 52.2728Z" fill="white"/>
<path fill-rule="evenodd" clip-rule="evenodd" d="M57.0807 29.7185C57.7254 30.4093 57.6881 31.492 56.9972 32.1368L5.66866 80.0435C4.97786 80.6882 3.89519 80.6509 3.25045 79.96C2.60569 79.2693 2.64303 78.1866 3.33384 77.5418L54.9744 29.175C55.6651 28.5303 56.4359 29.0277 57.0807 29.7185Z" fill="white"/>
<path fill-rule="evenodd" clip-rule="evenodd" d="M93.8856 53.6929C94.5186 54.3946 94.4632 55.4764 93.7617 56.1095L60.1073 87.3474C59.4058 87.9804 56.9037 88.3397 56.2706 87.6382C55.6376 86.9367 55.693 85.8547 56.3945 85.2217L91.7599 53.1283C92.4614 52.4952 93.2525 52.9914 93.8856 53.6929Z" fill="white"/>
<path fill-rule="evenodd" clip-rule="evenodd" d="M75.0668 53.6946C75.6989 54.397 75.6421 55.4788 74.9397 56.111L42.1424 86.4919C41.4401 87.1241 38.9365 87.4834 38.3043 86.781C37.6721 86.0787 37.729 84.9968 38.4314 84.3646L72.9396 53.1283C73.642 52.4961 74.4346 52.9923 75.0668 53.6946Z" fill="white"/>
<path fill-rule="evenodd" clip-rule="evenodd" d="M39.0746 53.6295C39.7427 54.2976 39.7427 55.381 39.0746 56.0491L33.9417 61.182C33.2736 61.8501 32.1902 61.8501 31.5221 61.182C30.854 60.5139 30.854 59.4305 31.5221 58.7624L36.1538 53.9839C36.8219 53.3157 38.4065 52.9614 39.0746 53.6295Z" fill="white"/>
<path fill-rule="evenodd" clip-rule="evenodd" d="M104.217 77.7238C104.807 78.4617 104.688 79.5384 103.95 80.1287L96.8927 86.4919C96.1548 87.0822 93.5805 87.4432 92.9902 86.7053C92.3999 85.9673 92.5195 84.8906 93.2575 84.3003L101.812 77.4565C102.55 76.8662 103.627 76.9858 104.217 77.7238Z" fill="white"/>
<path fill-rule="evenodd" clip-rule="evenodd" d="M85.3968 77.7238C85.9871 78.4617 85.8675 79.5384 85.1296 80.1287L78.0724 86.4919C77.3345 87.0822 74.7602 87.4432 74.1699 86.7053C73.5796 85.9673 73.6992 84.8906 74.4372 84.3003L82.9919 77.4565C83.7299 76.8662 84.8066 76.9858 85.3968 77.7238Z" fill="white"/>
<path d="M74.6504 28.3195C76.6466 30.8859 79.4411 37.5586 74.6504 43.718" stroke="white" stroke-linecap="round"/>
<path d="M82.3496 28.3195C84.3458 30.8859 87.1403 37.5586 82.3496 43.718" stroke="white" stroke-linecap="round"/>
<path d="M89.1934 28.3195C91.1895 30.8859 93.984 37.5586 89.1934 43.718" stroke="white" stroke-linecap="round"/>
<path d="M1.07935 0.944214C1.64966 2.65517 3.81687 6.07708 7.92316 6.07708C12.0294 6.07708 32.4468 6.07708 42.1422 6.07708C45.5641 6.07708 50.5259 7.10365 53.2634 14.6318" stroke="#5E80C9" stroke-linecap="round"/>
<path d="M104.592 0.944214C104.022 2.65517 101.855 6.07708 97.7482 6.07708C93.6419 6.07708 73.2246 6.07708 63.5292 6.07708C60.1072 6.07708 56.001 7.10365 53.2634 14.6318" stroke="#5E80C9" stroke-linecap="round"/>
<path d="M7.06763 109.59C22.181 94.7614 57.7119 74.0019 99.4591 109.59" stroke="#5D7DC4" stroke-linecap="round"/>
<path d="M16.4778 113.012C29.3099 97.6132 57.0274 71.2645 89.1933 113.012" stroke="#5D7DC4" stroke-linecap="round"/>
<path d="M34.4429 116.434C44.7086 88.2029 56.5737 77.0574 72.9393 116.434" stroke="#5D7DC4" stroke-linecap="round"/>
<path d="M53.2634 119V90.7693" stroke="#5D7DC4" stroke-linecap="round"/>
<path d="M11.345 106.168C25.8881 113.297 60.9626 123.277 95.1817 106.168" stroke="#5D7DC4" stroke-linecap="round"/>
<path d="M27.5991 95.9021C35.8687 98.1833 56.1721 101.377 78.0723 95.9021" stroke="#5D7DC4" stroke-linecap="round"/>
<path d="M20.6376 23.4183L13.4309 14.4352L20.1627 11.9115L20.6376 23.4183Z" fill="#5F83CF"/>
<path d="M18.7729 25.7277L7.26245 25.3544L9.72657 18.6007L18.7729 25.7277Z" fill="#5F83CF"/>
<path d="M24.6418 23.4183L31.8484 14.4352L25.1168 11.9115L24.6418 23.4183Z" fill="#5F83CF"/>
<path d="M26.5063 25.7277L38.017 25.3544L35.5527 18.6007L26.5063 25.7277Z" fill="#5F83CF"/>
<path d="M20.6376 30.8253L13.4309 39.8083L20.1627 42.3322L20.6376 30.8253Z" fill="#5F83CF"/>
<path d="M18.7729 28.5159L7.26245 28.8892L9.72657 35.6428L18.7729 28.5159Z" fill="#5F83CF"/>
<path d="M24.6418 30.8253L31.8484 39.8083L25.1168 42.3322L24.6418 30.8253Z" fill="#5F83CF"/>
<path d="M26.5063 28.5159L38.017 28.8892L35.5527 35.6428L26.5063 28.5159Z" fill="#5F83CF"/>
<path d="M22.4664 32.5969C25.3012 32.5969 27.5992 30.2988 27.5992 27.464C27.5992 24.6292 25.3012 22.3312 22.4664 22.3312C19.6316 22.3312 17.3335 24.6292 17.3335 27.464C17.3335 30.2988 19.6316 32.5969 22.4664 32.5969Z" fill="#5F83CF"/>
<path d="M139.976 37.464H143.336C143.784 37.464 144.088 37.384 144.248 37.224C144.408 37.032 144.488 36.728 144.488 36.312V7.512C144.488 7.064 144.408 6.76 144.248 6.6C144.088 6.44 143.784 6.36 143.336 6.36H139.976V4.824H165.992L166.376 17.304H164.84C164.84 17.112 164.68 16.376 164.36 15.096C164.04 13.816 163.624 12.648 163.112 11.592C161.48 8.104 159.448 6.36 157.016 6.36H152.744C152.328 6.36 152.024 6.44 151.832 6.6C151.672 6.76 151.592 7.064 151.592 7.512V20.376H157.352C159.592 20.376 161.576 20.776 163.304 21.576C165.064 22.376 166.424 23.48 167.384 24.888C168.376 26.264 168.872 27.832 168.872 29.592C168.872 31.352 168.376 32.952 167.384 34.392C166.424 35.8 165.064 36.92 163.304 37.752C161.576 38.584 159.592 39 157.352 39H139.976V37.464ZM156.632 37.464C159.672 37.464 161.192 34.744 161.192 29.304C161.192 26.968 160.856 25.16 160.184 23.88C159.512 22.568 158.328 21.912 156.632 21.912H151.592V36.312C151.592 36.728 151.672 37.032 151.832 37.224C152.024 37.384 152.328 37.464 152.744 37.464H156.632ZM173.96 37.464H177.32C177.768 37.464 178.072 37.384 178.232 37.224C178.392 37.032 178.472 36.728 178.472 36.312V7.512C178.472 7.064 178.392 6.76 178.232 6.6C178.072 6.44 177.768 6.36 177.32 6.36H173.96V4.824H199.784L200.168 19.176H198.632C198.568 18.952 198.424 18.44 198.2 17.64C198.008 16.808 197.72 15.864 197.336 14.808C196.984 13.72 196.584 12.76 196.136 11.928C194.12 8.216 191.96 6.36 189.656 6.36H186.728C186.312 6.36 186.008 6.44 185.816 6.6C185.656 6.76 185.576 7.064 185.576 7.512V36.312C185.576 36.728 185.656 37.032 185.816 37.224C186.008 37.384 186.312 37.464 186.728 37.464H191.096V39H173.96V37.464ZM215.453 39.864C213.565 39.864 211.981 39.352 210.701 38.328C209.453 37.272 208.829 35.912 208.829 34.248C208.829 32.712 209.245 31.512 210.077 30.648C210.909 29.784 212.013 29.352 213.389 29.352C214.413 29.352 215.261 29.704 215.933 30.408C216.637 31.08 216.989 31.848 216.989 32.712C216.989 33.32 216.845 33.88 216.557 34.392C216.269 34.872 215.869 35.368 215.357 35.88C214.973 36.264 214.781 36.728 214.781 37.272C214.781 37.592 214.893 37.848 215.117 38.04C215.373 38.232 215.677 38.328 216.029 38.328C217.341 38.328 218.397 37.848 219.197 36.888C220.029 35.896 220.781 34.504 221.453 32.712L221.837 31.608L210.221 8.904C209.773 8.008 209.229 7.368 208.589 6.984C207.981 6.568 207.245 6.36 206.381 6.36H204.317V4.824H222.653V6.36H220.061C219.581 6.36 219.165 6.536 218.813 6.888C218.461 7.208 218.285 7.608 218.285 8.088C218.285 8.632 218.397 9.112 218.621 9.528L225.389 22.824L229.421 12.36C229.613 11.848 229.773 11.272 229.901 10.632C230.061 9.96 230.141 9.432 230.141 9.048C230.141 7.256 229.373 6.36 227.837 6.36H225.245V4.824H238.205V6.36H235.997C235.069 6.36 234.349 6.664 233.837 7.272C233.325 7.88 232.845 8.744 232.397 9.864L223.661 32.136C222.893 34.152 221.853 35.944 220.541 37.512C219.229 39.08 217.533 39.864 215.453 39.864ZM242.164 37.464H245.523C245.972 37.464 246.276 37.384 246.436 37.224C246.596 37.032 246.676 36.728 246.676 36.312V7.512C246.676 7.064 246.596 6.76 246.436 6.6C246.276 6.44 245.972 6.36 245.523 6.36H242.164V4.824H258.292V6.36H254.932C254.516 6.36 254.212 6.44 254.02 6.6C253.86 6.76 253.78 7.064 253.78 7.512V31.368L265.108 8.952V7.512C265.108 7.064 265.028 6.76 264.868 6.6C264.708 6.44 264.404 6.36 263.956 6.36H260.5V4.824H276.724V6.36H273.364C272.948 6.36 272.644 6.44 272.452 6.6C272.292 6.76 272.212 7.064 272.212 7.512V36.312C272.212 36.728 272.292 37.032 272.452 37.224C272.644 37.384 272.948 37.464 273.364 37.464H276.724V39H260.596V37.464H263.956C264.404 37.464 264.708 37.384 264.868 37.224C265.028 37.032 265.108 36.728 265.108 36.312V12.408L253.78 34.872V36.312C253.78 36.728 253.86 37.032 254.02 37.224C254.212 37.384 254.516 37.464 254.932 37.464H258.292V39H242.164V37.464ZM281.726 37.464H285.086C285.534 37.464 285.838 37.384 285.998 37.224C286.158 37.032 286.238 36.728 286.238 36.312V7.512C286.238 7.064 286.158 6.76 285.998 6.6C285.838 6.44 285.534 6.36 285.086 6.36H281.726V4.824H298.814C301.054 4.824 303.038 5.208 304.766 5.976C306.526 6.712 307.886 7.768 308.846 9.144C309.838 10.488 310.334 12.024 310.334 13.752C310.334 15.512 309.838 17.08 308.846 18.456C307.886 19.832 306.526 20.92 304.766 21.72C303.038 22.488 301.054 22.872 298.814 22.872H293.342V36.312C293.342 36.728 293.422 37.032 293.582 37.224C293.774 37.384 294.078 37.464 294.494 37.464H298.718V39H281.726V37.464ZM298.094 21.336C299.758 21.336 300.926 20.664 301.598 19.32C302.302 17.976 302.654 16.12 302.654 13.752C302.654 11.416 302.318 9.608 301.646 8.328C300.974 7.016 299.79 6.36 298.094 6.36H294.494C294.078 6.36 293.774 6.44 293.582 6.6C293.422 6.76 293.342 7.064 293.342 7.512V21.336H298.094Z" fill="white"/>
<path d="M138.104 109.232H138.992C139.936 109.232 140.624 108.648 141.056 107.48L146.216 92.912H146.816L152.024 108.176C152.184 108.576 152.376 108.856 152.6 109.016C152.824 109.16 153.112 109.232 153.464 109.232H154.808V110H147.368V109.232H148.952C149.192 109.232 149.392 109.176 149.552 109.064C149.712 108.936 149.792 108.792 149.792 108.632C149.792 108.424 149.76 108.248 149.696 108.104L148.568 104.912H142.952L142.376 106.52C142.152 107.16 142.04 107.624 142.04 107.912C142.04 108.264 142.128 108.576 142.304 108.848C142.48 109.104 142.784 109.232 143.216 109.232H144.68V110H138.104V109.232ZM143.216 104.144H148.304L145.808 96.824L143.216 104.144ZM156.816 109.232H158.544C158.976 109.232 159.192 109.016 159.192 108.584V94.328C159.192 94.104 159.136 93.944 159.024 93.848C158.928 93.736 158.768 93.68 158.544 93.68H156.816V92.912H169.776L170.064 99.2H169.464C169.448 99.104 169.4 98.872 169.32 98.504C169.256 98.12 169.144 97.664 168.984 97.136C168.824 96.592 168.616 96.088 168.36 95.624C168.04 95.032 167.608 94.56 167.064 94.208C166.52 93.856 165.848 93.68 165.048 93.68H162.048C161.824 93.68 161.656 93.736 161.544 93.848C161.448 93.944 161.4 94.104 161.4 94.328V100.688H165.696C166.704 100.688 167.616 100.888 168.432 101.288C169.264 101.672 169.92 102.216 170.4 102.92C170.88 103.624 171.12 104.432 171.12 105.344C171.12 106.256 170.88 107.064 170.4 107.768C169.92 108.472 169.264 109.024 168.432 109.424C167.616 109.808 166.704 110 165.696 110H156.816V109.232ZM165.288 109.232C166.376 109.232 167.192 108.896 167.736 108.224C168.296 107.536 168.576 106.576 168.576 105.344C168.576 104.112 168.296 103.16 167.736 102.488C167.192 101.8 166.376 101.456 165.288 101.456H161.4V108.584C161.4 109.016 161.616 109.232 162.048 109.232H165.288ZM173.808 109.232H175.536C175.968 109.232 176.184 109.016 176.184 108.584V94.328C176.184 94.104 176.128 93.944 176.016 93.848C175.92 93.736 175.76 93.68 175.536 93.68H173.808V92.912H180.768V93.68H179.04C178.816 93.68 178.648 93.736 178.536 93.848C178.44 93.944 178.392 94.104 178.392 94.328V106.4L185.208 95.12V94.328C185.208 94.104 185.152 93.944 185.04 93.848C184.944 93.736 184.784 93.68 184.56 93.68H182.832V92.912H189.792V93.68H188.064C187.632 93.68 187.416 93.896 187.416 94.328V108.584C187.416 109.016 187.632 109.232 188.064 109.232H189.792V110H182.832V109.232H184.56C184.992 109.232 185.208 109.016 185.208 108.584V96.512L178.392 107.792V108.584C178.392 109.016 178.608 109.232 179.04 109.232H180.768V110H173.808V109.232ZM195.541 109.232H197.845C198.277 109.232 198.493 109.016 198.493 108.584V94.256C198.493 94.032 198.445 93.872 198.349 93.776C198.253 93.664 198.085 93.608 197.845 93.608H196.981C195.973 93.608 195.101 94.12 194.365 95.144C193.901 95.8 193.589 96.624 193.429 97.616C193.269 98.592 193.189 99.312 193.189 99.776H192.517L192.709 92.912H206.485L206.677 99.776H206.005C206.005 99.312 205.925 98.592 205.765 97.616C205.605 96.624 205.293 95.8 204.829 95.144C204.093 94.12 203.221 93.608 202.213 93.608H201.349C201.109 93.608 200.941 93.664 200.845 93.776C200.749 93.872 200.701 94.032 200.701 94.256V108.584C200.701 109.016 200.917 109.232 201.349 109.232H203.653V110H195.541V109.232ZM214.738 110.432C213.794 110.432 213.002 110.168 212.362 109.64C211.738 109.112 211.426 108.432 211.426 107.6C211.426 106.944 211.602 106.384 211.954 105.92C212.306 105.44 212.802 105.2 213.442 105.2C213.906 105.2 214.282 105.328 214.57 105.584C214.874 105.824 215.026 106.176 215.026 106.64C215.026 106.976 214.93 107.272 214.738 107.528C214.546 107.768 214.258 107.936 213.874 108.032C213.73 108.064 213.626 108.104 213.562 108.152C213.514 108.184 213.458 108.24 213.394 108.32C213.33 108.432 213.298 108.56 213.298 108.704C213.298 109.024 213.45 109.264 213.754 109.424C214.058 109.584 214.402 109.664 214.786 109.664C215.442 109.664 215.97 109.424 216.37 108.944C216.786 108.448 217.162 107.752 217.498 106.856L217.69 106.304L211.786 94.736C211.578 94.336 211.37 94.064 211.162 93.92C210.97 93.76 210.706 93.68 210.37 93.68H208.93V92.912H216.562V93.68H215.074C214.818 93.68 214.61 93.712 214.45 93.776C214.29 93.84 214.21 93.936 214.21 94.064C214.21 94.4 214.25 94.648 214.33 94.808L218.746 103.712L221.506 96.68C221.618 96.376 221.714 96.04 221.794 95.672C221.89 95.288 221.938 95 221.938 94.808C221.938 94.488 221.842 94.224 221.65 94.016C221.458 93.792 221.138 93.68 220.69 93.68H219.394V92.912H225.874V93.68H224.77C224.306 93.68 223.946 93.832 223.69 94.136C223.434 94.44 223.194 94.872 222.97 95.432L218.602 106.568C218.186 107.672 217.698 108.592 217.138 109.328C216.578 110.064 215.778 110.432 214.738 110.432ZM227.949 109.232H229.677C230.109 109.232 230.325 109.016 230.325 108.584V94.328C230.325 94.104 230.269 93.944 230.157 93.848C230.061 93.736 229.901 93.68 229.677 93.68H227.949V92.912H235.965C237.085 92.912 238.077 93.104 238.941 93.488C239.821 93.856 240.501 94.384 240.981 95.072C241.477 95.744 241.725 96.512 241.725 97.376C241.725 98.256 241.477 99.04 240.981 99.728C240.501 100.416 239.821 100.96 238.941 101.36C238.077 101.744 237.085 101.936 235.965 101.936H232.533V108.584C232.533 108.808 232.581 108.976 232.677 109.088C232.773 109.184 232.941 109.232 233.181 109.232H235.293V110H227.949V109.232ZM236.277 101.168C237.141 101.168 237.837 100.8 238.365 100.064C238.909 99.312 239.181 98.416 239.181 97.376C239.181 96.336 238.917 95.464 238.389 94.76C237.861 94.04 237.157 93.68 236.277 93.68H233.181C232.957 93.68 232.789 93.736 232.677 93.848C232.581 93.944 232.533 94.104 232.533 94.328V101.168H236.277ZM244.261 109.232H245.989C246.421 109.232 246.637 109.016 246.637 108.584V94.328C246.637 94.104 246.581 93.944 246.469 93.848C246.373 93.736 246.213 93.68 245.989 93.68H244.261V92.912H251.221V93.68H249.493C249.269 93.68 249.101 93.736 248.989 93.848C248.893 93.944 248.845 94.104 248.845 94.328V106.4L255.661 95.12V94.328C255.661 94.104 255.605 93.944 255.493 93.848C255.397 93.736 255.237 93.68 255.013 93.68H253.285V92.912H260.245V93.68H258.517C258.085 93.68 257.869 93.896 257.869 94.328V108.584C257.869 109.016 258.085 109.232 258.517 109.232H260.245V110H253.285V109.232H255.013C255.445 109.232 255.661 109.016 255.661 108.584V96.512L248.845 107.792V108.584C248.845 109.016 249.061 109.232 249.493 109.232H251.221V110H244.261V109.232ZM262.73 109.232H264.458C264.89 109.232 265.106 109.016 265.106 108.584V94.328C265.106 94.104 265.05 93.944 264.938 93.848C264.842 93.736 264.682 93.68 264.458 93.68H262.73V92.912H276.122L276.218 98.912H275.618C275.618 98.592 275.546 98.048 275.402 97.28C275.274 96.512 275.01 95.824 274.61 95.216C273.938 94.192 272.994 93.68 271.778 93.68H267.962C267.738 93.68 267.57 93.736 267.458 93.848C267.362 93.944 267.314 94.104 267.314 94.328V100.784H269.162C269.978 100.784 270.562 100.368 270.914 99.536C271.282 98.704 271.466 97.816 271.466 96.872H272.09V105.464H271.466C271.466 104.52 271.282 103.632 270.914 102.8C270.562 101.968 269.978 101.552 269.162 101.552H267.314V108.584C267.314 109.016 267.53 109.232 267.962 109.232H271.802C272.266 109.232 272.738 109.128 273.218 108.92C273.698 108.712 274.106 108.392 274.442 107.96C274.762 107.512 275.026 106.952 275.234 106.28C275.442 105.608 275.586 105 275.666 104.456C275.746 103.896 275.794 103.536 275.81 103.376H276.41L276.122 110H262.73V109.232ZM279.301 109.232H281.029C281.461 109.232 281.677 109.016 281.677 108.584V94.328C281.677 93.896 281.461 93.68 281.029 93.68H279.301V92.912H286.261V93.68H284.533C284.101 93.68 283.885 93.896 283.885 94.328V100.64H291.133V94.328C291.133 93.896 290.917 93.68 290.484 93.68H288.757V92.912H295.717V93.68H293.989C293.557 93.68 293.341 93.896 293.341 94.328V108.584C293.341 109.016 293.557 109.232 293.989 109.232H295.717V110H288.757V109.232H290.484C290.917 109.232 291.133 109.016 291.133 108.584V101.408H283.885V108.584C283.885 109.016 284.101 109.232 284.533 109.232H286.261V110H279.301V109.232ZM301.479 109.232H303.783C304.215 109.232 304.431 109.016 304.431 108.584V94.256C304.431 94.032 304.383 93.872 304.287 93.776C304.191 93.664 304.023 93.608 303.783 93.608H302.919C301.911 93.608 301.039 94.12 300.303 95.144C299.839 95.8 299.527 96.624 299.367 97.616C299.207 98.592 299.127 99.312 299.127 99.776H298.455L298.647 92.912H312.423L312.615 99.776H311.943C311.943 99.312 311.863 98.592 311.703 97.616C311.543 96.624 311.231 95.8 310.767 95.144C310.031 94.12 309.159 93.608 308.151 93.608H307.287C307.047 93.608 306.879 93.664 306.783 93.776C306.687 93.872 306.639 94.032 306.639 94.256V108.584C306.639 109.016 306.855 109.232 307.287 109.232H309.591V110H301.479V109.232Z" fill="white"/>
<line x1="313" y1="66" x2="137" y2="66" stroke="white" stroke-width="2"/>
</g>
<defs>
<clipPath id="clip0">
<rect width="313" height="120" fill="white"/>
</clipPath>
</defs>
</svg>
