<svg width="314" height="135" viewBox="0 0 314 135" fill="none" xmlns="http://www.w3.org/2000/svg">
<path fill-rule="evenodd" clip-rule="evenodd" d="M57.5409 35.3194C59.9032 35.3194 61.8183 37.2345 61.8183 39.5968V90.9254C61.8183 93.2878 59.9032 95.2028 57.5409 95.2028C55.1786 95.2028 53.2635 93.2878 53.2635 90.9254V39.5968C53.2635 37.2345 55.1786 35.3194 57.5409 35.3194Z" fill="white"/>
<path fill-rule="evenodd" clip-rule="evenodd" d="M94.3263 59.2728C96.6886 59.2728 98.6037 61.1878 98.6037 63.5501V90.0699C98.6037 92.4322 96.6886 94.3473 94.3263 94.3473C91.964 94.3473 90.0489 92.4322 90.0489 90.0699V63.5501C90.0489 61.1878 91.964 59.2728 94.3263 59.2728Z" fill="white"/>
<path fill-rule="evenodd" clip-rule="evenodd" d="M75.5059 59.2728C77.8682 59.2728 79.7833 61.1878 79.7833 63.5501V90.0699C79.7833 92.4322 77.8682 94.3473 75.5059 94.3473C73.1436 94.3473 71.2285 92.4322 71.2285 90.0699V63.5501C71.2285 61.1878 73.1436 59.2728 75.5059 59.2728Z" fill="white"/>
<path fill-rule="evenodd" clip-rule="evenodd" d="M39.5758 59.2728C41.9382 59.2728 43.8532 61.1878 43.8532 63.5501V90.0699C43.8532 92.4322 41.9382 94.3473 39.5758 94.3473C37.2135 94.3473 35.2985 92.4322 35.2985 90.0699V63.5501C35.2985 61.1878 37.2135 59.2728 39.5758 59.2728Z" fill="white"/>
<path fill-rule="evenodd" clip-rule="evenodd" d="M57.0808 36.7185C57.7255 37.4092 57.6882 38.4919 56.9973 39.1368L5.66875 87.0435C4.97795 87.6882 3.89528 87.6509 3.25054 86.96C2.60578 86.2693 2.64312 85.1866 3.33393 84.5417L54.9745 36.1749C55.6652 35.5302 56.436 36.0276 57.0808 36.7185Z" fill="white"/>
<path fill-rule="evenodd" clip-rule="evenodd" d="M93.8857 60.6929C94.5187 61.3945 94.4633 62.4764 93.7618 63.1094L60.1073 94.3473C59.4058 94.9804 56.9037 95.3397 56.2707 94.6382C55.6376 93.9367 55.6931 92.8547 56.3945 92.2216L91.76 60.1282C92.4615 59.4952 93.2526 59.9914 93.8857 60.6929Z" fill="white"/>
<path fill-rule="evenodd" clip-rule="evenodd" d="M75.0668 60.6946C75.6988 61.3969 75.642 62.4788 74.9397 63.111L42.1424 93.4919C41.44 94.1241 38.9364 94.4834 38.3042 93.781C37.672 93.0787 37.729 91.9968 38.4313 91.3646L72.9396 60.1283C73.6419 59.4961 74.4346 59.9922 75.0668 60.6946Z" fill="white"/>
<path fill-rule="evenodd" clip-rule="evenodd" d="M39.0747 60.6294C39.7428 61.2975 39.7428 62.3809 39.0747 63.0491L33.9418 68.1819C33.2737 68.85 32.1903 68.85 31.5222 68.1819C30.854 67.5138 30.854 66.4304 31.5222 65.7623L36.1539 60.9838C36.822 60.3156 38.4065 59.9613 39.0747 60.6294Z" fill="white"/>
<path fill-rule="evenodd" clip-rule="evenodd" d="M104.217 84.7238C104.808 85.4617 104.688 86.5384 103.95 87.1287L96.8928 93.4919C96.1549 94.0822 93.5806 94.4432 92.9903 93.7052C92.4 92.9673 92.5196 91.8906 93.2576 91.3003L101.812 84.4565C102.55 83.8662 103.627 83.9858 104.217 84.7238Z" fill="white"/>
<path fill-rule="evenodd" clip-rule="evenodd" d="M85.3968 84.7238C85.987 85.4617 85.8674 86.5384 85.1295 87.1287L78.0723 93.4919C77.3344 94.0822 74.7601 94.4432 74.1698 93.7052C73.5795 92.9673 73.6991 91.8906 74.4371 91.3003L82.9918 84.4565C83.7298 83.8662 84.8065 83.9858 85.3968 84.7238Z" fill="white"/>
<path d="M74.6503 35.3194C76.6465 37.8859 79.441 44.5586 74.6503 50.718" stroke="white" stroke-linecap="round"/>
<path d="M82.3497 35.3194C84.3458 37.8859 87.1403 44.5586 82.3497 50.718" stroke="white" stroke-linecap="round"/>
<path d="M89.1935 35.3194C91.1896 37.8859 93.9841 44.5586 89.1935 50.718" stroke="white" stroke-linecap="round"/>
<path d="M1.07938 7.94418C1.64969 9.65514 3.8169 13.077 7.92319 13.077C12.0295 13.077 32.4468 13.077 42.1423 13.077C45.5642 13.077 50.5259 14.1036 53.2635 21.6318" stroke="#5E80C9" stroke-linecap="round"/>
<path d="M104.592 7.94418C104.022 9.65514 101.855 13.077 97.7483 13.077C93.642 13.077 73.2247 13.077 63.5292 13.077C60.1073 13.077 56.001 14.1036 53.2635 21.6318" stroke="#5E80C9" stroke-linecap="round"/>
<path d="M7.0677 116.59C22.1811 101.761 57.7119 81.0018 99.4592 116.59" stroke="#5D7DC4" stroke-linecap="round"/>
<path d="M16.4779 120.012C29.3101 104.613 57.0275 78.2644 89.1935 120.012" stroke="#5D7DC4" stroke-linecap="round"/>
<path d="M34.443 123.434C44.7087 95.2028 56.5738 84.0573 72.9394 123.434" stroke="#5D7DC4" stroke-linecap="round"/>
<path d="M53.2635 126V97.7693" stroke="#5D7DC4" stroke-linecap="round"/>
<path d="M11.3451 113.168C25.8882 120.297 60.9627 130.277 95.1818 113.168" stroke="#5D7DC4" stroke-linecap="round"/>
<path d="M27.5992 102.902C35.8688 105.183 56.1721 108.377 78.0724 102.902" stroke="#5D7DC4" stroke-linecap="round"/>
<path d="M20.6376 30.4182L13.4309 21.4351L20.1627 18.9114L20.6376 30.4182Z" fill="#5F83CF"/>
<path d="M18.7731 32.7277L7.26259 32.3544L9.7267 25.6007L18.7731 32.7277Z" fill="#5F83CF"/>
<path d="M24.642 30.4182L31.8485 21.4351L25.1169 18.9114L24.642 30.4182Z" fill="#5F83CF"/>
<path d="M26.5064 32.7277L38.017 32.3544L35.5527 25.6007L26.5064 32.7277Z" fill="#5F83CF"/>
<path d="M20.6376 37.8253L13.4309 46.8083L20.1627 49.3322L20.6376 37.8253Z" fill="#5F83CF"/>
<path d="M18.7731 35.5159L7.26259 35.8892L9.7267 42.6429L18.7731 35.5159Z" fill="#5F83CF"/>
<path d="M24.642 37.8253L31.8485 46.8083L25.1169 49.3322L24.642 37.8253Z" fill="#5F83CF"/>
<path d="M26.5064 35.5159L38.017 35.8892L35.5527 42.6429L26.5064 35.5159Z" fill="#5F83CF"/>
<path d="M22.4663 39.5968C25.3011 39.5968 27.5991 37.2987 27.5991 34.4639C27.5991 31.6291 25.3011 29.3311 22.4663 29.3311C19.6315 29.3311 17.3334 31.6291 17.3334 34.4639C17.3334 37.2987 19.6315 39.5968 22.4663 39.5968Z" fill="#5F83CF"/>
<path d="M139.976 40.464H143.336C143.784 40.464 144.088 40.384 144.248 40.224C144.408 40.032 144.488 39.728 144.488 39.312V10.512C144.488 10.064 144.408 9.76 144.248 9.6C144.088 9.44 143.784 9.36 143.336 9.36H139.976V7.824H165.992L166.376 20.304H164.84C164.84 20.112 164.68 19.376 164.36 18.096C164.04 16.816 163.624 15.648 163.112 14.592C161.48 11.104 159.448 9.36 157.016 9.36H152.744C152.328 9.36 152.024 9.44 151.832 9.6C151.672 9.76 151.592 10.064 151.592 10.512V23.376H157.352C159.592 23.376 161.576 23.776 163.304 24.576C165.064 25.376 166.424 26.48 167.384 27.888C168.376 29.264 168.872 30.832 168.872 32.592C168.872 34.352 168.376 35.952 167.384 37.392C166.424 38.8 165.064 39.92 163.304 40.752C161.576 41.584 159.592 42 157.352 42H139.976V40.464ZM156.632 40.464C159.672 40.464 161.192 37.744 161.192 32.304C161.192 29.968 160.856 28.16 160.184 26.88C159.512 25.568 158.328 24.912 156.632 24.912H151.592V39.312C151.592 39.728 151.672 40.032 151.832 40.224C152.024 40.384 152.328 40.464 152.744 40.464H156.632ZM173.96 40.464H177.32C177.768 40.464 178.072 40.384 178.232 40.224C178.392 40.032 178.472 39.728 178.472 39.312V10.512C178.472 10.064 178.392 9.76 178.232 9.6C178.072 9.44 177.768 9.36 177.32 9.36H173.96V7.824H199.784L200.168 22.176H198.632C198.568 21.952 198.424 21.44 198.2 20.64C198.008 19.808 197.72 18.864 197.336 17.808C196.984 16.72 196.584 15.76 196.136 14.928C194.12 11.216 191.96 9.36 189.656 9.36H186.728C186.312 9.36 186.008 9.44 185.816 9.6C185.656 9.76 185.576 10.064 185.576 10.512V39.312C185.576 39.728 185.656 40.032 185.816 40.224C186.008 40.384 186.312 40.464 186.728 40.464H191.096V42H173.96V40.464ZM215.453 42.864C213.565 42.864 211.981 42.352 210.701 41.328C209.453 40.272 208.829 38.912 208.829 37.248C208.829 35.712 209.245 34.512 210.077 33.648C210.909 32.784 212.013 32.352 213.389 32.352C214.413 32.352 215.261 32.704 215.933 33.408C216.637 34.08 216.989 34.848 216.989 35.712C216.989 36.32 216.845 36.88 216.557 37.392C216.269 37.872 215.869 38.368 215.357 38.88C214.973 39.264 214.781 39.728 214.781 40.272C214.781 40.592 214.893 40.848 215.117 41.04C215.373 41.232 215.677 41.328 216.029 41.328C217.341 41.328 218.397 40.848 219.197 39.888C220.029 38.896 220.781 37.504 221.453 35.712L221.837 34.608L210.221 11.904C209.773 11.008 209.229 10.368 208.589 9.984C207.981 9.568 207.245 9.36 206.381 9.36H204.317V7.824H222.653V9.36H220.061C219.581 9.36 219.165 9.536 218.813 9.888C218.461 10.208 218.285 10.608 218.285 11.088C218.285 11.632 218.397 12.112 218.621 12.528L225.389 25.824L229.421 15.36C229.613 14.848 229.773 14.272 229.901 13.632C230.061 12.96 230.141 12.432 230.141 12.048C230.141 10.256 229.373 9.36 227.837 9.36H225.245V7.824H238.205V9.36H235.997C235.069 9.36 234.349 9.664 233.837 10.272C233.325 10.88 232.845 11.744 232.397 12.864L223.661 35.136C222.893 37.152 221.853 38.944 220.541 40.512C219.229 42.08 217.533 42.864 215.453 42.864ZM242.164 40.464H245.523C245.972 40.464 246.276 40.384 246.436 40.224C246.596 40.032 246.676 39.728 246.676 39.312V10.512C246.676 10.064 246.596 9.76 246.436 9.6C246.276 9.44 245.972 9.36 245.523 9.36H242.164V7.824H258.292V9.36H254.932C254.516 9.36 254.212 9.44 254.02 9.6C253.86 9.76 253.78 10.064 253.78 10.512V34.368L265.108 11.952V10.512C265.108 10.064 265.028 9.76 264.868 9.6C264.708 9.44 264.404 9.36 263.956 9.36H260.5V7.824H276.724V9.36H273.364C272.948 9.36 272.644 9.44 272.452 9.6C272.292 9.76 272.212 10.064 272.212 10.512V39.312C272.212 39.728 272.292 40.032 272.452 40.224C272.644 40.384 272.948 40.464 273.364 40.464H276.724V42H260.596V40.464H263.956C264.404 40.464 264.708 40.384 264.868 40.224C265.028 40.032 265.108 39.728 265.108 39.312V15.408L253.78 37.872V39.312C253.78 39.728 253.86 40.032 254.02 40.224C254.212 40.384 254.516 40.464 254.932 40.464H258.292V42H242.164V40.464ZM281.726 40.464H285.086C285.534 40.464 285.838 40.384 285.998 40.224C286.158 40.032 286.238 39.728 286.238 39.312V10.512C286.238 10.064 286.158 9.76 285.998 9.6C285.838 9.44 285.534 9.36 285.086 9.36H281.726V7.824H298.814C301.054 7.824 303.038 8.208 304.766 8.976C306.526 9.712 307.886 10.768 308.846 12.144C309.838 13.488 310.334 15.024 310.334 16.752C310.334 18.512 309.838 20.08 308.846 21.456C307.886 22.832 306.526 23.92 304.766 24.72C303.038 25.488 301.054 25.872 298.814 25.872H293.342V39.312C293.342 39.728 293.422 40.032 293.582 40.224C293.774 40.384 294.078 40.464 294.494 40.464H298.718V42H281.726V40.464ZM298.094 24.336C299.758 24.336 300.926 23.664 301.598 22.32C302.302 20.976 302.654 19.12 302.654 16.752C302.654 14.416 302.318 12.608 301.646 11.328C300.974 10.016 299.79 9.36 298.094 9.36H294.494C294.078 9.36 293.774 9.44 293.582 9.6C293.422 9.76 293.342 10.064 293.342 10.512V24.336H298.094Z" fill="white"/>
<path d="M138.104 125.232H138.992C139.936 125.232 140.624 124.648 141.056 123.48L146.216 108.912H146.816L152.024 124.176C152.184 124.576 152.376 124.856 152.6 125.016C152.824 125.16 153.112 125.232 153.464 125.232H154.808V126H147.368V125.232H148.952C149.192 125.232 149.392 125.176 149.552 125.064C149.712 124.936 149.792 124.792 149.792 124.632C149.792 124.424 149.76 124.248 149.696 124.104L148.568 120.912H142.952L142.376 122.52C142.152 123.16 142.04 123.624 142.04 123.912C142.04 124.264 142.128 124.576 142.304 124.848C142.48 125.104 142.784 125.232 143.216 125.232H144.68V126H138.104V125.232ZM143.216 120.144H148.304L145.808 112.824L143.216 120.144ZM156.816 125.232H158.544C158.976 125.232 159.192 125.016 159.192 124.584V110.328C159.192 110.104 159.136 109.944 159.024 109.848C158.928 109.736 158.768 109.68 158.544 109.68H156.816V108.912H169.776L170.064 115.2H169.464C169.448 115.104 169.4 114.872 169.32 114.504C169.256 114.12 169.144 113.664 168.984 113.136C168.824 112.592 168.616 112.088 168.36 111.624C168.04 111.032 167.608 110.56 167.064 110.208C166.52 109.856 165.848 109.68 165.048 109.68H162.048C161.824 109.68 161.656 109.736 161.544 109.848C161.448 109.944 161.4 110.104 161.4 110.328V116.688H165.696C166.704 116.688 167.616 116.888 168.432 117.288C169.264 117.672 169.92 118.216 170.4 118.92C170.88 119.624 171.12 120.432 171.12 121.344C171.12 122.256 170.88 123.064 170.4 123.768C169.92 124.472 169.264 125.024 168.432 125.424C167.616 125.808 166.704 126 165.696 126H156.816V125.232ZM165.288 125.232C166.376 125.232 167.192 124.896 167.736 124.224C168.296 123.536 168.576 122.576 168.576 121.344C168.576 120.112 168.296 119.16 167.736 118.488C167.192 117.8 166.376 117.456 165.288 117.456H161.4V124.584C161.4 125.016 161.616 125.232 162.048 125.232H165.288ZM173.808 125.232H175.536C175.968 125.232 176.184 125.016 176.184 124.584V110.328C176.184 110.104 176.128 109.944 176.016 109.848C175.92 109.736 175.76 109.68 175.536 109.68H173.808V108.912H180.768V109.68H179.04C178.816 109.68 178.648 109.736 178.536 109.848C178.44 109.944 178.392 110.104 178.392 110.328V122.4L185.208 111.12V110.328C185.208 110.104 185.152 109.944 185.04 109.848C184.944 109.736 184.784 109.68 184.56 109.68H182.832V108.912H189.792V109.68H188.064C187.632 109.68 187.416 109.896 187.416 110.328V124.584C187.416 125.016 187.632 125.232 188.064 125.232H189.792V126H182.832V125.232H184.56C184.992 125.232 185.208 125.016 185.208 124.584V112.512L178.392 123.792V124.584C178.392 125.016 178.608 125.232 179.04 125.232H180.768V126H173.808V125.232ZM195.541 125.232H197.845C198.277 125.232 198.493 125.016 198.493 124.584V110.256C198.493 110.032 198.445 109.872 198.349 109.776C198.253 109.664 198.085 109.608 197.845 109.608H196.981C195.973 109.608 195.101 110.12 194.365 111.144C193.901 111.8 193.589 112.624 193.429 113.616C193.269 114.592 193.189 115.312 193.189 115.776H192.517L192.709 108.912H206.485L206.677 115.776H206.005C206.005 115.312 205.925 114.592 205.765 113.616C205.605 112.624 205.293 111.8 204.829 111.144C204.093 110.12 203.221 109.608 202.213 109.608H201.349C201.109 109.608 200.941 109.664 200.845 109.776C200.749 109.872 200.701 110.032 200.701 110.256V124.584C200.701 125.016 200.917 125.232 201.349 125.232H203.653V126H195.541V125.232ZM214.738 126.432C213.794 126.432 213.002 126.168 212.362 125.64C211.738 125.112 211.426 124.432 211.426 123.6C211.426 122.944 211.602 122.384 211.954 121.92C212.306 121.44 212.802 121.2 213.442 121.2C213.906 121.2 214.282 121.328 214.57 121.584C214.874 121.824 215.026 122.176 215.026 122.64C215.026 122.976 214.93 123.272 214.738 123.528C214.546 123.768 214.258 123.936 213.874 124.032C213.73 124.064 213.626 124.104 213.562 124.152C213.514 124.184 213.458 124.24 213.394 124.32C213.33 124.432 213.298 124.56 213.298 124.704C213.298 125.024 213.45 125.264 213.754 125.424C214.058 125.584 214.402 125.664 214.786 125.664C215.442 125.664 215.97 125.424 216.37 124.944C216.786 124.448 217.162 123.752 217.498 122.856L217.69 122.304L211.786 110.736C211.578 110.336 211.37 110.064 211.162 109.92C210.97 109.76 210.706 109.68 210.37 109.68H208.93V108.912H216.562V109.68H215.074C214.818 109.68 214.61 109.712 214.45 109.776C214.29 109.84 214.21 109.936 214.21 110.064C214.21 110.4 214.25 110.648 214.33 110.808L218.746 119.712L221.506 112.68C221.618 112.376 221.714 112.04 221.794 111.672C221.89 111.288 221.938 111 221.938 110.808C221.938 110.488 221.842 110.224 221.65 110.016C221.458 109.792 221.138 109.68 220.69 109.68H219.394V108.912H225.874V109.68H224.77C224.306 109.68 223.946 109.832 223.69 110.136C223.434 110.44 223.194 110.872 222.97 111.432L218.602 122.568C218.186 123.672 217.698 124.592 217.138 125.328C216.578 126.064 215.778 126.432 214.738 126.432ZM227.949 125.232H229.677C230.109 125.232 230.325 125.016 230.325 124.584V110.328C230.325 110.104 230.269 109.944 230.157 109.848C230.061 109.736 229.901 109.68 229.677 109.68H227.949V108.912H235.965C237.085 108.912 238.077 109.104 238.941 109.488C239.821 109.856 240.501 110.384 240.981 111.072C241.477 111.744 241.725 112.512 241.725 113.376C241.725 114.256 241.477 115.04 240.981 115.728C240.501 116.416 239.821 116.96 238.941 117.36C238.077 117.744 237.085 117.936 235.965 117.936H232.533V124.584C232.533 124.808 232.581 124.976 232.677 125.088C232.773 125.184 232.941 125.232 233.181 125.232H235.293V126H227.949V125.232ZM236.277 117.168C237.141 117.168 237.837 116.8 238.365 116.064C238.909 115.312 239.181 114.416 239.181 113.376C239.181 112.336 238.917 111.464 238.389 110.76C237.861 110.04 237.157 109.68 236.277 109.68H233.181C232.957 109.68 232.789 109.736 232.677 109.848C232.581 109.944 232.533 110.104 232.533 110.328V117.168H236.277ZM244.261 125.232H245.989C246.421 125.232 246.637 125.016 246.637 124.584V110.328C246.637 110.104 246.581 109.944 246.469 109.848C246.373 109.736 246.213 109.68 245.989 109.68H244.261V108.912H251.221V109.68H249.493C249.269 109.68 249.101 109.736 248.989 109.848C248.893 109.944 248.845 110.104 248.845 110.328V122.4L255.661 111.12V110.328C255.661 110.104 255.605 109.944 255.493 109.848C255.397 109.736 255.237 109.68 255.013 109.68H253.285V108.912H260.245V109.68H258.517C258.085 109.68 257.869 109.896 257.869 110.328V124.584C257.869 125.016 258.085 125.232 258.517 125.232H260.245V126H253.285V125.232H255.013C255.445 125.232 255.661 125.016 255.661 124.584V112.512L248.845 123.792V124.584C248.845 125.016 249.061 125.232 249.493 125.232H251.221V126H244.261V125.232ZM262.73 125.232H264.458C264.89 125.232 265.106 125.016 265.106 124.584V110.328C265.106 110.104 265.05 109.944 264.938 109.848C264.842 109.736 264.682 109.68 264.458 109.68H262.73V108.912H276.122L276.218 114.912H275.618C275.618 114.592 275.546 114.048 275.402 113.28C275.274 112.512 275.01 111.824 274.61 111.216C273.938 110.192 272.994 109.68 271.778 109.68H267.962C267.738 109.68 267.57 109.736 267.458 109.848C267.362 109.944 267.314 110.104 267.314 110.328V116.784H269.162C269.978 116.784 270.562 116.368 270.914 115.536C271.282 114.704 271.466 113.816 271.466 112.872H272.09V121.464H271.466C271.466 120.52 271.282 119.632 270.914 118.8C270.562 117.968 269.978 117.552 269.162 117.552H267.314V124.584C267.314 125.016 267.53 125.232 267.962 125.232H271.802C272.266 125.232 272.738 125.128 273.218 124.92C273.698 124.712 274.106 124.392 274.442 123.96C274.762 123.512 275.026 122.952 275.234 122.28C275.442 121.608 275.586 121 275.666 120.456C275.746 119.896 275.794 119.536 275.81 119.376H276.41L276.122 126H262.73V125.232ZM279.301 125.232H281.029C281.461 125.232 281.677 125.016 281.677 124.584V110.328C281.677 109.896 281.461 109.68 281.029 109.68H279.301V108.912H286.261V109.68H284.533C284.101 109.68 283.885 109.896 283.885 110.328V116.64H291.133V110.328C291.133 109.896 290.917 109.68 290.484 109.68H288.757V108.912H295.717V109.68H293.989C293.557 109.68 293.341 109.896 293.341 110.328V124.584C293.341 125.016 293.557 125.232 293.989 125.232H295.717V126H288.757V125.232H290.484C290.917 125.232 291.133 125.016 291.133 124.584V117.408H283.885V124.584C283.885 125.016 284.101 125.232 284.533 125.232H286.261V126H279.301V125.232ZM301.479 125.232H303.783C304.215 125.232 304.431 125.016 304.431 124.584V110.256C304.431 110.032 304.383 109.872 304.287 109.776C304.191 109.664 304.023 109.608 303.783 109.608H302.919C301.911 109.608 301.039 110.12 300.303 111.144C299.839 111.8 299.527 112.624 299.367 113.616C299.207 114.592 299.127 115.312 299.127 115.776H298.455L298.647 108.912H312.423L312.615 115.776H311.943C311.943 115.312 311.863 114.592 311.703 113.616C311.543 112.624 311.231 111.8 310.767 111.144C310.031 110.12 309.159 109.608 308.151 109.608H307.287C307.047 109.608 306.879 109.664 306.783 109.776C306.687 109.872 306.639 110.032 306.639 110.256V124.584C306.639 125.016 306.855 125.232 307.287 125.232H309.591V126H301.479V125.232Z" fill="white"/>
<line x1="313" y1="73" x2="137" y2="73" stroke="white" stroke-width="2"/>
</svg>
