<svg xmlns="http://www.w3.org/2000/svg">
  <symbol id="search" viewBox="0 0 22 22">
    <path clip-rule="evenodd"
          d="M8.39991 3.20003C7.02079 3.20003 5.69815 3.74788 4.72296 4.72307C3.74777 5.69826 3.19991 7.0209 3.19991 8.40003C3.19991 9.77915 3.74777 11.1018 4.72296 12.077C5.69815 13.0522 7.02079 13.6 8.39991 13.6C9.77904 13.6 11.1017 13.0522 12.0769 12.077C13.0521 11.1018 13.5999 9.77915 13.5999 8.40003C13.5999 7.0209 13.0521 5.69826 12.0769 4.72307C11.1017 3.74788 9.77904 3.20003 8.39991
    3.20003ZM0.599915 8.40003C0.599758 7.17244 0.88935 5.96215 1.44514 4.86759C2.00092 3.77303 2.80721 2.8251 3.79843 2.10091C4.78964
    1.37672 5.9378 0.896702 7.1495 0.699909C8.36121 0.503116 9.60226 0.5951 10.7717 0.968381C11.9412 1.34166 13.006 1.9857 13.8796 2.84811C14.7532
    3.71052 15.411 4.76696 15.7993 5.9315C16.1877 7.09604 16.2957 8.3358 16.1145 9.54994C15.9334 10.7641 15.4683 11.9183 14.7569 12.9188L21.019
    19.1809C21.2558 19.4261 21.3869 19.7545 21.3839 20.0954C21.3809 20.4362
    21.2442 20.7623 21.0032 21.0033C20.7621 21.2443 20.4361 21.381 20.0952
    21.384C19.7544 21.387 19.426 21.2559 19.1808 21.0191L12.92
    14.7583C11.7531 15.5881 10.3803 16.0806 8.95199 16.182C7.52372
    16.2833 6.09511 15.9896 4.8227 15.3329C3.5503 14.6762 2.48321 13.682
    1.73835 12.4591C0.993503 11.2362 0.599636 9.83189 0.599915 8.40003Z"/>
  </symbol>
</svg>
