<svg width="20" height="20" viewBox="0 0 20 20" fill="none" xmlns="http://www.w3.org/2000/svg">
<path d="M20.0002 17.778V2.22247C20.0002 1.00024 18.9969 0.000244141 17.7725 0.000244141H2.22802C0.950244 0.000244141 0.000244141 0.948022 0.000244141 2.22247V17.778C0.000244141 19.0536 0.950244 20.0002 2.22802 20.0002H17.7725C18.3621 19.9994 18.9274 19.7651 19.3448 19.3487C19.7623 18.9323 19.9979 18.3676 20.0002 17.778ZM15.7602 11.7858C15.7602 11.7858 17.018 13.0269 17.328 13.6025C17.3369 13.6147 17.3402 13.6258 17.3436 13.6302C17.4691 13.8414 17.5014 14.008 17.438 14.1302C17.3336 14.3336 16.978 14.4358 16.8569 14.4447H14.6358C14.4802 14.4447 14.158 14.4047 13.7669 14.1347C13.4669 13.9258 13.1702 13.5802 12.8814 13.2436C12.4502 12.7436 12.0769 12.3102 11.7014 12.3102C11.6537 12.3101 11.6064 12.318 11.5614 12.3336C11.2758 12.4247 10.9136 12.8302 10.9136 13.9136C10.9136 14.2525 10.6469 14.4458 10.458 14.4458H9.44024C9.09358 14.4458 7.28802 14.3247 5.68913 12.6369C3.72691 10.5702 1.96469 6.42469 1.94913 6.38802C1.83802 6.12024 2.06802 5.97469 2.31802 5.97469H4.56247C4.86358 5.97469 4.96024 6.15691 5.02913 6.32024C5.10691 6.5058 5.40024 7.25469 5.88024 8.09691C6.66136 9.46691 7.14247 10.0247 7.5258 10.0247C7.59748 10.0243 7.66786 10.0055 7.73024 9.97024C8.23136 9.69358 8.13802 7.90691 8.1158 7.53802C8.1158 7.46802 8.11469 6.73913 7.85913 6.38913C7.67469 6.1358 7.36247 6.03913 7.17358 6.00247C7.2506 5.89633 7.35195 5.81022 7.46913 5.75136C7.81247 5.58024 8.43136 5.5558 9.04691 5.5558H9.38913C10.0569 5.56469 10.2302 5.60802 10.4714 5.66913C10.9591 5.7858 10.9691 6.10247 10.9258 7.18024C10.9136 7.48691 10.9002 7.83469 10.9002 8.24247C10.9002 8.33025 10.8969 8.42691 10.8969 8.52691C10.8814 9.07802 10.8636 9.70136 11.2525 9.95691C11.3028 9.98841 11.3609 10.0053 11.4202 10.0058C11.5558 10.0058 11.9614 10.0058 13.0602 8.12024C13.5436 7.28802 13.9158 6.3058 13.9414 6.23247C13.9802 6.15318 14.0364 6.08368 14.1058 6.02913C14.1627 5.99957 14.2261 5.98468 14.2902 5.9858H16.9291C17.218 5.9858 17.4136 6.02913 17.4502 6.13913C17.5136 6.3158 17.438 6.85469 16.2325 8.48358L15.6958 9.19469C14.6025 10.6258 14.6025 10.6991 15.7602 11.7858Z" fill="#F9FCFF"/>
</svg>
